<?xml version="1.0" encoding="UTF-8" standalone="no"?>
<!-- Created with Inkscape (http://www.inkscape.org/) -->

<svg
   xmlns:dc="http://purl.org/dc/elements/1.1/"
   xmlns:cc="http://creativecommons.org/ns#"
   xmlns:rdf="http://www.w3.org/1999/02/22-rdf-syntax-ns#"
   xmlns:svg="http://www.w3.org/2000/svg"
   xmlns="http://www.w3.org/2000/svg"
   xmlns:sodipodi="http://sodipodi.sourceforge.net/DTD/sodipodi-0.dtd"
   xmlns:inkscape="http://www.inkscape.org/namespaces/inkscape"
   width="32mm"
   height="32mm"
   viewBox="0 0 32 32"
   version="1.1"
   id="svg1384"
   inkscape:version="0.92.4 (5da689c313, 2019-01-14)"
   sodipodi:docname="circle.svg">
  <defs
     id="defs1378" />
  <sodipodi:namedview
     id="base"
     pagecolor="#ffffff"
     bordercolor="#666666"
     borderopacity="1.0"
     inkscape:pageopacity="0.0"
     inkscape:pageshadow="2"
     inkscape:zoom="3.959798"
     inkscape:cx="46.432817"
     inkscape:cy="68.857092"
     inkscape:document-units="mm"
     inkscape:current-layer="layer1"
     showgrid="false"
     inkscape:window-width="1822"
     inkscape:window-height="1051"
     inkscape:window-x="89"
     inkscape:window-y="-9"
     inkscape:window-maximized="1" />
  <metadata
     id="metadata1381">
    <rdf:RDF>
      <cc:Work
         rdf:about="">
        <dc:format>image/svg+xml</dc:format>
        <dc:type
           rdf:resource="http://purl.org/dc/dcmitype/StillImage" />
        <dc:title></dc:title>
      </cc:Work>
    </rdf:RDF>
  </metadata>
  <g
     inkscape:label="Layer 1"
     inkscape:groupmode="layer"
     id="layer1"
     transform="translate(0,-265)">
    <path
       sodipodi:type="star"
       style="fill:#f5f5f5;fill-rule:evenodd;stroke-width:0.09421558"
       id="path1951"
       sodipodi:sides="5"
       sodipodi:cx="8.1997099"
       sodipodi:cy="289.06018"
       sodipodi:r1="7.9079518"
       sodipodi:r2="4.552773"
       sodipodi:arg1="0.5404195"
       sodipodi:arg2="1.168738"
       inkscape:flatsided="false"
       inkscape:rounded="0.29"
       inkscape:randomized="0"
       d="m 14.980723,293.12879 c -0.746156,1.24359 -3.664834,-0.44639 -4.9994522,0.12111 -1.3346186,0.56751 -2.1422862,3.84202 -3.5555885,3.51668 -1.4133023,-0.32535 -0.7079511,-3.62341 -1.6601036,-4.71734 -0.9521526,-1.09393 -4.31597796,-0.85019 -4.44329094,-2.29485 -0.12731297,-1.44467 3.22729554,-1.793 3.97345144,-3.03659 0.7461559,-1.24359 -0.5251349,-4.36746 0.8094837,-4.93497 1.3346186,-0.56751 2.7025293,2.51527 4.1158316,2.84062 1.4133025,0.32534 3.9914265,-1.84905 4.9435795,-0.75513 0.952152,1.09393 -1.557041,3.34752 -1.429728,4.79219 0.127313,1.44467 2.991973,3.22469 2.245817,4.46828 z"
       inkscape:transform-center-x="0.72440921"
       inkscape:transform-center-y="0.026412415" />
    <path
       inkscape:transform-center-y="-0.77209961"
       inkscape:transform-center-x="-0.032607229"
       d="m 19.190218,278.16169 c -0.746156,1.24359 -3.664833,-0.4464 -4.999452,0.12111 -1.334618,0.56751 -2.142286,3.84202 -3.555588,3.51667 -1.4133025,-0.32534 -0.7079512,-3.6234 -1.6601038,-4.71733 -0.9521526,-1.09393 -4.3159779,-0.85019 -4.4432909,-2.29485 -0.127313,-1.44467 3.2272955,-1.793 3.9734514,-3.03659 0.746156,-1.2436 -0.5251349,-4.36746 0.8094838,-4.93497 1.3346185,-0.56751 2.7025295,2.51527 4.1158315,2.84062 1.413302,0.32534 3.991427,-1.84906 4.943579,-0.75513 0.952153,1.09393 -1.55704,3.34752 -1.429727,4.79219 0.127313,1.44467 2.991972,3.22468 2.245816,4.46828 z"
       inkscape:randomized="0"
       inkscape:rounded="0.29"
       inkscape:flatsided="false"
       sodipodi:arg2="1.168738"
       sodipodi:arg1="0.5404195"
       sodipodi:r2="4.552773"
       sodipodi:r1="7.9079518"
       sodipodi:cy="274.09308"
       sodipodi:cx="12.409205"
       sodipodi:sides="5"
       id="path1953"
       style="fill:#f5f5f5;fill-rule:evenodd;stroke-width:0.09421558"
       sodipodi:type="star"
       transform="rotate(91.406285,17.424619,279.05137)" />
  </g>
</svg>
