<?xml version="1.0" encoding="UTF-8" standalone="no"?>
<!-- Created with Inkscape (http://www.inkscape.org/) -->

<svg
   xmlns:dc="http://purl.org/dc/elements/1.1/"
   xmlns:cc="http://creativecommons.org/ns#"
   xmlns:rdf="http://www.w3.org/1999/02/22-rdf-syntax-ns#"
   xmlns:svg="http://www.w3.org/2000/svg"
   xmlns="http://www.w3.org/2000/svg"
   xmlns:sodipodi="http://sodipodi.sourceforge.net/DTD/sodipodi-0.dtd"
   xmlns:inkscape="http://www.inkscape.org/namespaces/inkscape"
   width="992"
   height="1024"
   viewBox="0 0 262.46677 270.93369"
   version="1.1"
   id="svg821"
   inkscape:version="0.92.4 (5da689c313, 2019-01-14)"
   sodipodi:docname="card_bg2.svg">
  <defs
     id="defs815" />
  <sodipodi:namedview
     id="base"
     pagecolor="#ffffff"
     bordercolor="#666666"
     borderopacity="1.0"
     inkscape:pageopacity="0.0"
     inkscape:pageshadow="2"
     inkscape:zoom="0.79999996"
     inkscape:cx="395.563"
     inkscape:cy="516.65728"
     inkscape:document-units="mm"
     inkscape:current-layer="layer1"
     showgrid="false"
     units="px"
     inkscape:window-width="1822"
     inkscape:window-height="1051"
     inkscape:window-x="89"
     inkscape:window-y="-9"
     inkscape:window-maximized="1" />
  <metadata
     id="metadata818">
    <rdf:RDF>
      <cc:Work
         rdf:about="">
        <dc:format>image/svg+xml</dc:format>
        <dc:type
           rdf:resource="http://purl.org/dc/dcmitype/StillImage" />
        <dc:title></dc:title>
      </cc:Work>
    </rdf:RDF>
  </metadata>
  <g
     inkscape:label="Layer 1"
     inkscape:groupmode="layer"
     id="layer1"
     transform="translate(6.2838539,-22.261503)">
    <path
       style="fill:#d3d3d3;fill-opacity:0.5372549;fill-rule:evenodd;stroke-width:0.26458332"
       id="path1370"
       sodipodi:type="arc"
       sodipodi:cx="221.42319"
       sodipodi:cy="49.447433"
       sodipodi:rx="9.7565107"
       sodipodi:ry="9.7565107"
       sodipodi:start="3.2069901"
       sodipodi:end="3.1697972"
       sodipodi:open="true"
       d="m 211.68753,48.809837 a 9.7565107,9.7565107 0 0 1 10.2827,-9.103566 9.7565107,9.7565107 0 0 1 9.19878,10.19761 9.7565107,9.7565107 0 0 1 -10.11163,9.293203 9.7565107,9.7565107 0 0 1 -9.38682,-10.024792" />
    <path
       style="fill:#8fbc8f;fill-opacity:0.56862745;fill-rule:evenodd;stroke-width:0.26458332"
       id="path1372"
       sodipodi:type="arc"
       sodipodi:cx="241.34961"
       sodipodi:cy="35.474121"
       sodipodi:rx="7.5240884"
       sodipodi:ry="7.5240884"
       sodipodi:start="3.2069901"
       sodipodi:end="3.1697972"
       sodipodi:open="true"
       d="m 233.8416,34.982416 a 7.5240884,7.5240884 0 0 1 7.92988,-7.020547 7.5240884,7.5240884 0 0 1 7.09398,7.864258 7.5240884,7.5240884 0 0 1 -7.79796,7.166792 7.5240884,7.5240884 0 0 1 -7.23899,-7.730983" />
    <path
       style="fill:#46d04d;fill-opacity:0.70196078;fill-rule:evenodd;stroke-width:0.26458332"
       id="path1374"
       sodipodi:type="arc"
       sodipodi:cx="37.299427"
       sodipodi:cy="-8.1426001"
       sodipodi:rx="4.6302085"
       sodipodi:ry="4.6302085"
       sodipodi:start="3.2069901"
       sodipodi:end="3.1697972"
       sodipodi:open="true"
       d="m 32.679116,-8.4451881 a 4.6302085,4.6302085 0 0 1 4.879926,-4.3203369 4.6302085,4.6302085 0 0 1 4.365524,4.8395442 4.6302085,4.6302085 0 0 1 -4.798744,4.4103335 4.6302085,4.6302085 0 0 1 -4.454762,-4.7575284"
       transform="rotate(91.516948)" />
    <path
       style="fill:#228b22;fill-opacity:0.44705882;fill-rule:evenodd;stroke-width:0.26458332"
       id="path1376"
       sodipodi:type="arc"
       sodipodi:cx="34.14719"
       sodipodi:cy="-22.533058"
       sodipodi:rx="1.9016926"
       sodipodi:ry="1.9016926"
       sodipodi:start="3.2069901"
       sodipodi:end="3.1697972"
       sodipodi:open="true"
       d="m 32.249563,-22.657335 a 1.9016926,1.9016926 0 0 1 2.004255,-1.774424 1.9016926,1.9016926 0 0 1 1.792982,1.987669 1.9016926,1.9016926 0 0 1 -1.970912,1.811387 1.9016926,1.9016926 0 0 1 -1.829634,-1.953984"
       transform="rotate(91.516948)" />
    <path
       style="fill:#008000;fill-opacity:0.40784314;fill-rule:evenodd;stroke-width:0.26458332"
       id="path1382"
       sodipodi:type="arc"
       sodipodi:cx="4.3063636"
       sodipodi:cy="273.58493"
       sodipodi:rx="6.614583"
       sodipodi:ry="6.614583"
       sodipodi:start="3.2069901"
       sodipodi:end="3.1697972"
       sodipodi:open="true"
       d="m -2.2940798,273.15266 a 6.614583,6.614583 0 0 1 6.9713217,-6.17191 6.614583,6.614583 0 0 1 6.2364621,6.91364 6.614583,6.614583 0 0 1 -6.8553475,6.30047 6.614583,6.614583 0 0 1 -6.3639452,-6.79647" />
    <path
       style="fill:#c0c0c0;fill-opacity:0.38823529;fill-rule:evenodd;stroke-width:0.26458332"
       id="path1384"
       sodipodi:type="arc"
       sodipodi:cx="15.792317"
       sodipodi:cy="287.3244"
       sodipodi:rx="5.8704429"
       sodipodi:ry="5.8704429"
       sodipodi:start="3.2069901"
       sodipodi:end="3.1697972"
       sodipodi:open="true"
       d="m 9.9344235,286.94076 a 5.8704429,5.8704429 0 0 1 6.1870485,-5.47757 5.8704429,5.8704429 0 0 1 5.53486,6.13585 5.8704429,5.8704429 0 0 1 -6.084121,5.59168 5.8704429,5.8704429 0 0 1 -5.6480017,-6.03187" />
    <path
       style="fill:#228b22;fill-opacity:0.4;fill-rule:evenodd;stroke-width:0.26458332"
       id="path1386"
       sodipodi:type="arc"
       sodipodi:cx="21.497395"
       sodipodi:cy="279.13885"
       sodipodi:rx="3.3072915"
       sodipodi:ry="3.3072915"
       sodipodi:start="3.2069901"
       sodipodi:end="3.1697972"
       sodipodi:open="true"
       d="m 18.197173,278.92272 a 3.3072915,3.3072915 0 0 1 3.485661,-3.08595 3.3072915,3.3072915 0 0 1 3.118231,3.45681 3.3072915,3.3072915 0 0 1 -3.427674,3.15024 3.3072915,3.3072915 0 0 1 -3.181973,-3.39823" />
    <path
       style="fill:#008000;fill-opacity:0.44313725;fill-rule:evenodd;stroke-width:0.26458332"
       id="path1388"
       sodipodi:type="arc"
       sodipodi:cx="231.57884"
       sodipodi:cy="-269.88773"
       sodipodi:rx="17.776693"
       sodipodi:ry="17.776693"
       sodipodi:start="3.2069901"
       sodipodi:end="3.1697972"
       sodipodi:open="true"
       d="m 213.84015,-271.04945 a 17.776693,17.776693 0 0 1 18.73543,-16.587 17.776693,17.776693 0 0 1 16.76049,18.58039 17.776693,17.776693 0 0 1 -18.42375,16.93253 17.776693,17.776693 0 0 1 -17.1031,-18.26551"
       transform="scale(1,-1)" />
    <path
       transform="rotate(91.516948)"
       d="m 37.223214,-22.368151 a 4.6302085,4.6302085 0 0 1 4.879926,-4.320337 4.6302085,4.6302085 0 0 1 4.365524,4.839544 4.6302085,4.6302085 0 0 1 -4.798744,4.410334 4.6302085,4.6302085 0 0 1 -4.454762,-4.757529"
       sodipodi:open="true"
       sodipodi:end="3.1697972"
       sodipodi:start="3.2069901"
       sodipodi:ry="4.6302085"
       sodipodi:rx="4.6302085"
       sodipodi:cy="-22.065563"
       sodipodi:cx="41.843525"
       sodipodi:type="arc"
       id="path4791"
       style="fill:#2c3d30;fill-opacity:0.30980392;fill-rule:evenodd;stroke-width:0.26458332" />
    <path
       transform="rotate(91.516948)"
       d="m 39.05317,-14.69435 a 2.0577393,2.0577393 0 0 1 2.168717,-1.920027 2.0577393,2.0577393 0 0 1 1.940109,2.150772 2.0577393,2.0577393 0 0 1 -2.132639,1.960023 2.0577393,2.0577393 0 0 1 -1.979768,-2.114322"
       sodipodi:open="true"
       sodipodi:end="3.1697972"
       sodipodi:start="3.2069901"
       sodipodi:ry="2.0577393"
       sodipodi:rx="2.0577393"
       sodipodi:cy="-14.559875"
       sodipodi:cx="41.10651"
       sodipodi:type="arc"
       id="path4795"
       style="fill:#228b22;fill-opacity:0.30980392;fill-rule:evenodd;stroke-width:0.11758509" />
    <path
       transform="rotate(91.516948)"
       d="m 32.330718,-39.380805 a 5.3317909,5.3317909 0 0 1 5.619346,-4.974966 5.3317909,5.3317909 0 0 1 5.027,5.572845 5.3317909,5.3317909 0 0 1 -5.525862,5.0786 5.3317909,5.3317909 0 0 1 -5.129761,-5.478403"
       sodipodi:open="true"
       sodipodi:end="3.1697972"
       sodipodi:start="3.2069901"
       sodipodi:ry="5.3317909"
       sodipodi:rx="5.3317909"
       sodipodi:cy="-39.032368"
       sodipodi:cx="37.651112"
       sodipodi:type="arc"
       id="path4799"
       style="fill:#32cd32;fill-opacity:0.67843137;fill-rule:evenodd;stroke-width:0.30467376" />
    <path
       style="fill:#228b22;fill-opacity:0.70196078;fill-rule:evenodd;stroke-width:0.26458332"
       id="path4801"
       sodipodi:type="arc"
       sodipodi:cx="46.283848"
       sodipodi:cy="-31.072977"
       sodipodi:rx="4.6302085"
       sodipodi:ry="4.6302085"
       sodipodi:start="3.2069901"
       sodipodi:end="3.1697972"
       sodipodi:open="true"
       d="m 41.663537,-31.375565 a 4.6302085,4.6302085 0 0 1 4.879926,-4.320337 4.6302085,4.6302085 0 0 1 4.365523,4.839544 4.6302085,4.6302085 0 0 1 -4.798743,4.410334 4.6302085,4.6302085 0 0 1 -4.454762,-4.757529"
       transform="rotate(91.516948)" />
    <path
       transform="rotate(-103.64567)"
       d="m -66.229995,5.4888038 a 4.6302085,4.6302085 0 0 1 4.879926,-4.3203364 4.6302085,4.6302085 0 0 1 4.365524,4.8395437 4.6302085,4.6302085 0 0 1 -4.798744,4.4103339 4.6302085,4.6302085 0 0 1 -4.454762,-4.7575288"
       sodipodi:open="true"
       sodipodi:end="3.1697972"
       sodipodi:start="3.2069901"
       sodipodi:ry="4.6302085"
       sodipodi:rx="4.6302085"
       sodipodi:cy="5.7913918"
       sodipodi:cx="-61.609684"
       sodipodi:type="arc"
       id="path4803"
       style="fill:#46d04d;fill-opacity:0.70196078;fill-rule:evenodd;stroke-width:0.26458332" />
    <path
       transform="rotate(-103.64567)"
       d="m -68.850676,-5.6454807 a 1.9016926,1.9016926 0 0 1 2.004255,-1.7744238 1.9016926,1.9016926 0 0 1 1.792983,1.9876696 1.9016926,1.9016926 0 0 1 -1.970913,1.8113868 1.9016926,1.9016926 0 0 1 -1.829634,-1.9539847"
       sodipodi:open="true"
       sodipodi:end="3.1697972"
       sodipodi:start="3.2069901"
       sodipodi:ry="1.9016926"
       sodipodi:rx="1.9016926"
       sodipodi:cy="-5.5212035"
       sodipodi:cx="-66.953049"
       sodipodi:type="arc"
       id="path4805"
       style="fill:#228b22;fill-opacity:0.44705882;fill-rule:evenodd;stroke-width:0.26458332" />
    <path
       style="fill:#2c3d30;fill-opacity:0.30980392;fill-rule:evenodd;stroke-width:0.26458332"
       id="path4807"
       sodipodi:type="arc"
       sodipodi:cx="-59.256718"
       sodipodi:cy="-5.0537086"
       sodipodi:rx="4.6302085"
       sodipodi:ry="4.6302085"
       sodipodi:start="3.2069901"
       sodipodi:end="3.1697972"
       sodipodi:open="true"
       d="m -63.877028,-5.3562966 a 4.6302085,4.6302085 0 0 1 4.879925,-4.3203364 4.6302085,4.6302085 0 0 1 4.365524,4.8395437 4.6302085,4.6302085 0 0 1 -4.798744,4.41033352 4.6302085,4.6302085 0 0 1 -4.454762,-4.75752842"
       transform="rotate(-103.64567)" />
    <path
       transform="rotate(-103.64567)"
       d="m -54.423218,-0.18891306 a 3.5778346,3.5778346 0 0 1 3.770795,-3.33839164 3.5778346,3.5778346 0 0 1 3.373309,3.73959125 3.5778346,3.5778346 0 0 1 -3.708064,3.40793375 3.5778346,3.5778346 0 0 1 -3.442265,-3.67621668"
       sodipodi:open="true"
       sodipodi:end="3.1697972"
       sodipodi:start="3.2069901"
       sodipodi:ry="3.5778346"
       sodipodi:rx="3.5778346"
       sodipodi:cy="0.044901442"
       sodipodi:cx="-50.853031"
       sodipodi:type="arc"
       id="path4813"
       style="fill:#32cd32;fill-opacity:0.30980392;fill-rule:evenodd;stroke-width:0.20444769" />
    <path
       transform="rotate(91.516948)"
       d="m 48.202245,-20.974308 a 1.9016926,1.9016926 0 0 1 2.004255,-1.774424 1.9016926,1.9016926 0 0 1 1.792983,1.98767 1.9016926,1.9016926 0 0 1 -1.970912,1.811387 1.9016926,1.9016926 0 0 1 -1.829635,-1.953985"
       sodipodi:open="true"
       sodipodi:end="3.1697972"
       sodipodi:start="3.2069901"
       sodipodi:ry="1.9016926"
       sodipodi:rx="1.9016926"
       sodipodi:cy="-20.850031"
       sodipodi:cx="50.099873"
       sodipodi:type="arc"
       id="path4819"
       style="fill:#228b22;fill-opacity:0.44705882;fill-rule:evenodd;stroke-width:0.26458332" />
    <path
       style="fill:#46d04d;fill-opacity:0.70196078;fill-rule:evenodd;stroke-width:0.26458332"
       id="path4821"
       sodipodi:type="arc"
       sodipodi:cx="-294.21637"
       sodipodi:cy="156.9249"
       sodipodi:rx="4.6302085"
       sodipodi:ry="4.6302085"
       sodipodi:start="3.2069901"
       sodipodi:end="3.1697972"
       sodipodi:open="true"
       d="m -298.83668,156.62231 a 4.6302085,4.6302085 0 0 1 4.87993,-4.32034 4.6302085,4.6302085 0 0 1 4.36552,4.83955 4.6302085,4.6302085 0 0 1 -4.79874,4.41033 4.6302085,4.6302085 0 0 1 -4.45477,-4.75753"
       transform="rotate(-103.64567)" />
    <path
       style="fill:#228b22;fill-opacity:0.44705882;fill-rule:evenodd;stroke-width:0.26458332"
       id="path4823"
       sodipodi:type="arc"
       sodipodi:cx="-298.98831"
       sodipodi:cy="146.23235"
       sodipodi:rx="1.9016926"
       sodipodi:ry="1.9016926"
       sodipodi:start="3.2069901"
       sodipodi:end="3.1697972"
       sodipodi:open="true"
       d="m -300.88594,146.10807 a 1.9016926,1.9016926 0 0 1 2.00426,-1.77443 1.9016926,1.9016926 0 0 1 1.79298,1.98767 1.9016926,1.9016926 0 0 1 -1.97091,1.81139 1.9016926,1.9016926 0 0 1 -1.82964,-1.95398"
       transform="rotate(-103.64567)" />
    <path
       transform="rotate(-103.64567)"
       d="m -295.22392,147.52697 a 4.6302085,4.6302085 0 0 1 4.87993,-4.32034 4.6302085,4.6302085 0 0 1 4.36552,4.83955 4.6302085,4.6302085 0 0 1 -4.79874,4.41033 4.6302085,4.6302085 0 0 1 -4.45476,-4.75753"
       sodipodi:open="true"
       sodipodi:end="3.1697972"
       sodipodi:start="3.2069901"
       sodipodi:ry="4.6302085"
       sodipodi:rx="4.6302085"
       sodipodi:cy="147.82956"
       sodipodi:cx="-290.60361"
       sodipodi:type="arc"
       id="path4825"
       style="fill:#2c3d30;fill-opacity:0.30980392;fill-rule:evenodd;stroke-width:0.26458332" />
    <path
       style="fill:#228b22;fill-opacity:0.44705882;fill-rule:evenodd;stroke-width:0.26458332"
       id="path4827"
       sodipodi:type="arc"
       sodipodi:cx="276.00363"
       sodipodi:cy="-219.28873"
       sodipodi:rx="1.9016926"
       sodipodi:ry="1.9016926"
       sodipodi:start="3.2069901"
       sodipodi:end="3.1697972"
       sodipodi:open="true"
       d="m 274.106,-219.413 a 1.9016926,1.9016926 0 0 1 2.00426,-1.77443 1.9016926,1.9016926 0 0 1 1.79298,1.98767 1.9016926,1.9016926 0 0 1 -1.97091,1.81139 1.9016926,1.9016926 0 0 1 -1.82963,-1.95399"
       transform="rotate(91.516948)" />
    <path
       d="m 187.5443,272.05204 a 9.7565107,9.7565107 0 0 1 10.2827,-9.10357 9.7565107,9.7565107 0 0 1 9.19878,10.19761 9.7565107,9.7565107 0 0 1 -10.11164,9.29321 9.7565107,9.7565107 0 0 1 -9.38682,-10.0248"
       sodipodi:open="true"
       sodipodi:end="3.1697972"
       sodipodi:start="3.2069901"
       sodipodi:ry="9.7565107"
       sodipodi:rx="9.7565107"
       sodipodi:cy="272.68964"
       sodipodi:cx="197.27995"
       sodipodi:type="arc"
       id="path2550"
       style="fill:#d3d3d3;fill-opacity:0.5372549;fill-rule:evenodd;stroke-width:0.26458332" />
    <path
       style="fill:#46d04d;fill-opacity:0.70196078;fill-rule:evenodd;stroke-width:0.26458332"
       id="path2552"
       sodipodi:type="arc"
       sodipodi:cx="-261.56674"
       sodipodi:cy="-38.327694"
       sodipodi:rx="4.6302085"
       sodipodi:ry="4.6302085"
       sodipodi:start="3.2069901"
       sodipodi:end="3.1697972"
       sodipodi:open="true"
       d="m -266.18705,-38.630282 a 4.6302085,4.6302085 0 0 1 4.87992,-4.320336 4.6302085,4.6302085 0 0 1 4.36553,4.839543 4.6302085,4.6302085 0 0 1 -4.79875,4.410334 4.6302085,4.6302085 0 0 1 -4.45476,-4.757529"
       transform="rotate(-103.64567)" />
    <path
       style="fill:#228b22;fill-opacity:0.44705882;fill-rule:evenodd;stroke-width:0.26458332"
       id="path2554"
       sodipodi:type="arc"
       sodipodi:cx="-266.91013"
       sodipodi:cy="-49.640289"
       sodipodi:rx="1.9016926"
       sodipodi:ry="1.9016926"
       sodipodi:start="3.2069901"
       sodipodi:end="3.1697972"
       sodipodi:open="true"
       d="m -268.80775,-49.764567 a 1.9016926,1.9016926 0 0 1 2.00425,-1.774423 1.9016926,1.9016926 0 0 1 1.79298,1.987669 1.9016926,1.9016926 0 0 1 -1.97091,1.811387 1.9016926,1.9016926 0 0 1 -1.82963,-1.953985"
       transform="rotate(-103.64567)" />
    <path
       style="fill:#228b22;fill-opacity:0.44705882;fill-rule:evenodd;stroke-width:0.26458332"
       id="path2556"
       sodipodi:type="arc"
       sodipodi:cx="254.63567"
       sodipodi:cy="-30.56752"
       sodipodi:rx="1.9016926"
       sodipodi:ry="1.9016926"
       sodipodi:start="3.2069901"
       sodipodi:end="3.1697972"
       sodipodi:open="true"
       d="m 252.73804,-30.691797 a 1.9016926,1.9016926 0 0 1 2.00425,-1.774424 1.9016926,1.9016926 0 0 1 1.79299,1.987669 1.9016926,1.9016926 0 0 1 -1.97092,1.811387 1.9016926,1.9016926 0 0 1 -1.82963,-1.953984"
       transform="rotate(91.516948)" />
  </g>
</svg>
