<?xml version="1.0" encoding="UTF-8" standalone="no"?>
<!-- Created with Inkscape (http://www.inkscape.org/) -->

<svg
   xmlns:dc="http://purl.org/dc/elements/1.1/"
   xmlns:cc="http://creativecommons.org/ns#"
   xmlns:rdf="http://www.w3.org/1999/02/22-rdf-syntax-ns#"
   xmlns:svg="http://www.w3.org/2000/svg"
   xmlns="http://www.w3.org/2000/svg"
   xmlns:sodipodi="http://sodipodi.sourceforge.net/DTD/sodipodi-0.dtd"
   xmlns:inkscape="http://www.inkscape.org/namespaces/inkscape"
   width="741.875"
   height="478.12503"
   viewBox="0 0 196.28784 126.50408"
   version="1.1"
   id="svg821"
   inkscape:version="0.92.4 (5da689c313, 2019-01-14)"
   sodipodi:docname="card_bg.svg">
  <defs
     id="defs815" />
  <sodipodi:namedview
     id="base"
     pagecolor="#ffffff"
     bordercolor="#666666"
     borderopacity="1.0"
     inkscape:pageopacity="0.0"
     inkscape:pageshadow="2"
     inkscape:zoom="1.1313708"
     inkscape:cx="455.26731"
     inkscape:cy="243.12384"
     inkscape:document-units="mm"
     inkscape:current-layer="layer1"
     showgrid="false"
     units="px"
     inkscape:window-width="1822"
     inkscape:window-height="1051"
     inkscape:window-x="89"
     inkscape:window-y="-9"
     inkscape:window-maximized="1" />
  <metadata
     id="metadata818">
    <rdf:RDF>
      <cc:Work
         rdf:about="">
        <dc:format>image/svg+xml</dc:format>
        <dc:type
           rdf:resource="http://purl.org/dc/dcmitype/StillImage" />
        <dc:title></dc:title>
      </cc:Work>
    </rdf:RDF>
  </metadata>
  <g
     inkscape:label="Layer 1"
     inkscape:groupmode="layer"
     id="layer1"
     transform="translate(6.2838539,-166.69093)">
    <path
       style="fill:#d3d3d3;fill-opacity:0.5372549;fill-rule:evenodd;stroke-width:0.26458332"
       id="path1370"
       sodipodi:type="arc"
       sodipodi:cx="162.55339"
       sodipodi:cy="189.67661"
       sodipodi:rx="9.7565107"
       sodipodi:ry="9.7565107"
       sodipodi:start="3.2069901"
       sodipodi:end="3.1697972"
       sodipodi:open="true"
       d="m 152.81774,189.03901 a 9.7565107,9.7565107 0 0 1 10.2827,-9.10357 9.7565107,9.7565107 0 0 1 9.19878,10.19761 9.7565107,9.7565107 0 0 1 -10.11164,9.29321 9.7565107,9.7565107 0 0 1 -9.38682,-10.0248" />
    <path
       style="fill:#8fbc8f;fill-opacity:0.56862748;fill-rule:evenodd;stroke-width:0.26458332"
       id="path1372"
       sodipodi:type="arc"
       sodipodi:cx="182.47981"
       sodipodi:cy="175.70329"
       sodipodi:rx="7.5240884"
       sodipodi:ry="7.5240884"
       sodipodi:start="3.2069901"
       sodipodi:end="3.1697972"
       sodipodi:open="true"
       d="m 174.97181,175.21159 a 7.5240884,7.5240884 0 0 1 7.92988,-7.02055 7.5240884,7.5240884 0 0 1 7.09397,7.86426 7.5240884,7.5240884 0 0 1 -7.79796,7.16679 7.5240884,7.5240884 0 0 1 -7.23898,-7.73098" />
    <path
       style="fill:#46d04d;fill-opacity:0.70196078;fill-rule:evenodd;stroke-width:0.26458332"
       id="path1374"
       sodipodi:type="arc"
       sodipodi:cx="173.03473"
       sodipodi:cy="-4.7893844"
       sodipodi:rx="4.6302085"
       sodipodi:ry="4.6302085"
       sodipodi:start="3.2069901"
       sodipodi:end="3.1697972"
       sodipodi:open="true"
       d="m 168.41442,-5.0919724 a 4.6302085,4.6302085 0 0 1 4.87992,-4.3203365 4.6302085,4.6302085 0 0 1 4.36553,4.8395438 4.6302085,4.6302085 0 0 1 -4.79875,4.41033351 4.6302085,4.6302085 0 0 1 -4.45476,-4.75752841"
       transform="rotate(91.516948)" />
    <path
       style="fill:#228b22;fill-opacity:0.44705882;fill-rule:evenodd;stroke-width:0.26458332"
       id="path1376"
       sodipodi:type="arc"
       sodipodi:cx="169.88249"
       sodipodi:cy="-19.179842"
       sodipodi:rx="1.9016926"
       sodipodi:ry="1.9016926"
       sodipodi:start="3.2069901"
       sodipodi:end="3.1697972"
       sodipodi:open="true"
       d="m 167.98486,-19.304119 a 1.9016926,1.9016926 0 0 1 2.00426,-1.774424 1.9016926,1.9016926 0 0 1 1.79298,1.98767 1.9016926,1.9016926 0 0 1 -1.97091,1.811386 1.9016926,1.9016926 0 0 1 -1.82963,-1.953984"
       transform="rotate(91.516948)" />
    <path
       style="fill:#008000;fill-opacity:0.40784314;fill-rule:evenodd;stroke-width:0.26458332"
       id="path1382"
       sodipodi:type="arc"
       sodipodi:cx="4.3063636"
       sodipodi:cy="273.58493"
       sodipodi:rx="6.614583"
       sodipodi:ry="6.614583"
       sodipodi:start="3.2069901"
       sodipodi:end="3.1697972"
       sodipodi:open="true"
       d="m -2.2940798,273.15266 a 6.614583,6.614583 0 0 1 6.9713217,-6.17191 6.614583,6.614583 0 0 1 6.2364621,6.91364 6.614583,6.614583 0 0 1 -6.8553475,6.30047 6.614583,6.614583 0 0 1 -6.3639452,-6.79647" />
    <path
       style="fill:#c0c0c0;fill-opacity:0.3882353;fill-rule:evenodd;stroke-width:0.26458332"
       id="path1384"
       sodipodi:type="arc"
       sodipodi:cx="15.792317"
       sodipodi:cy="287.3244"
       sodipodi:rx="5.8704429"
       sodipodi:ry="5.8704429"
       sodipodi:start="3.2069901"
       sodipodi:end="3.1697972"
       sodipodi:open="true"
       d="m 9.9344235,286.94076 a 5.8704429,5.8704429 0 0 1 6.1870485,-5.47757 5.8704429,5.8704429 0 0 1 5.53486,6.13585 5.8704429,5.8704429 0 0 1 -6.084121,5.59168 5.8704429,5.8704429 0 0 1 -5.6480017,-6.03187" />
    <path
       style="fill:#228b22;fill-opacity:0.40000001;fill-rule:evenodd;stroke-width:0.26458332"
       id="path1386"
       sodipodi:type="arc"
       sodipodi:cx="21.497395"
       sodipodi:cy="279.13885"
       sodipodi:rx="3.3072915"
       sodipodi:ry="3.3072915"
       sodipodi:start="3.2069901"
       sodipodi:end="3.1697972"
       sodipodi:open="true"
       d="m 18.197173,278.92272 a 3.3072915,3.3072915 0 0 1 3.485661,-3.08595 3.3072915,3.3072915 0 0 1 3.118231,3.45681 3.3072915,3.3072915 0 0 1 -3.427674,3.15024 3.3072915,3.3072915 0 0 1 -3.181973,-3.39823" />
    <path
       style="fill:#008000;fill-opacity:0.44313725;fill-rule:evenodd;stroke-width:0.26458332"
       id="path1388"
       sodipodi:type="arc"
       sodipodi:cx="190.56842"
       sodipodi:cy="-272.86429"
       sodipodi:rx="17.776693"
       sodipodi:ry="17.776693"
       sodipodi:start="3.2069901"
       sodipodi:end="3.1697972"
       sodipodi:open="true"
       d="m 172.82973,-274.02601 a 17.776693,17.776693 0 0 1 18.73543,-16.58701 17.776693,17.776693 0 0 1 16.76049,18.58039 17.776693,17.776693 0 0 1 -18.42375,16.93254 17.776693,17.776693 0 0 1 -17.1031,-18.26552"
       transform="scale(1,-1)" />
    <path
       transform="rotate(91.516948)"
       d="m 172.95852,-19.014935 a 4.6302085,4.6302085 0 0 1 4.87992,-4.320337 4.6302085,4.6302085 0 0 1 4.36553,4.839544 4.6302085,4.6302085 0 0 1 -4.79875,4.410334 4.6302085,4.6302085 0 0 1 -4.45476,-4.757529"
       sodipodi:open="true"
       sodipodi:end="3.1697972"
       sodipodi:start="3.2069901"
       sodipodi:ry="4.6302085"
       sodipodi:rx="4.6302085"
       sodipodi:cy="-18.712347"
       sodipodi:cx="177.57883"
       sodipodi:type="arc"
       id="path4791"
       style="fill:#2c3d30;fill-opacity:0.30980392;fill-rule:evenodd;stroke-width:0.26458332" />
    <path
       transform="rotate(91.516948)"
       d="m 174.78847,-11.341135 a 2.0577393,2.0577393 0 0 1 2.16872,-1.920027 2.0577393,2.0577393 0 0 1 1.94011,2.150771 2.0577393,2.0577393 0 0 1 -2.13264,1.9600231 2.0577393,2.0577393 0 0 1 -1.97977,-2.1143221"
       sodipodi:open="true"
       sodipodi:end="3.1697972"
       sodipodi:start="3.2069901"
       sodipodi:ry="2.0577393"
       sodipodi:rx="2.0577393"
       sodipodi:cy="-11.20666"
       sodipodi:cx="176.84181"
       sodipodi:type="arc"
       id="path4795"
       style="fill:#228b22;fill-opacity:0.30980392;fill-rule:evenodd;stroke-width:0.11758509" />
    <path
       transform="rotate(91.516948)"
       d="m 168.06602,-36.02759 a 5.3317909,5.3317909 0 0 1 5.61935,-4.974967 5.3317909,5.3317909 0 0 1 5.027,5.572846 5.3317909,5.3317909 0 0 1 -5.52587,5.078599 5.3317909,5.3317909 0 0 1 -5.12976,-5.478402"
       sodipodi:open="true"
       sodipodi:end="3.1697972"
       sodipodi:start="3.2069901"
       sodipodi:ry="5.3317909"
       sodipodi:rx="5.3317909"
       sodipodi:cy="-35.679153"
       sodipodi:cx="173.38641"
       sodipodi:type="arc"
       id="path4799"
       style="fill:#32cd32;fill-opacity:0.67843137;fill-rule:evenodd;stroke-width:0.30467376" />
    <path
       style="fill:#228b22;fill-opacity:0.70196078;fill-rule:evenodd;stroke-width:0.26458332"
       id="path4801"
       sodipodi:type="arc"
       sodipodi:cx="182.01915"
       sodipodi:cy="-27.719761"
       sodipodi:rx="4.6302085"
       sodipodi:ry="4.6302085"
       sodipodi:start="3.2069901"
       sodipodi:end="3.1697972"
       sodipodi:open="true"
       d="m 177.39884,-28.022349 a 4.6302085,4.6302085 0 0 1 4.87992,-4.320336 4.6302085,4.6302085 0 0 1 4.36553,4.839543 4.6302085,4.6302085 0 0 1 -4.79875,4.410334 4.6302085,4.6302085 0 0 1 -4.45476,-4.757529"
       transform="rotate(91.516948)" />
    <path
       transform="rotate(-103.64567)"
       d="m -196.36293,-33.250536 a 4.6302085,4.6302085 0 0 1 4.87993,-4.320337 4.6302085,4.6302085 0 0 1 4.36552,4.839544 4.6302085,4.6302085 0 0 1 -4.79874,4.410333 4.6302085,4.6302085 0 0 1 -4.45476,-4.757528"
       sodipodi:open="true"
       sodipodi:end="3.1697972"
       sodipodi:start="3.2069901"
       sodipodi:ry="4.6302085"
       sodipodi:rx="4.6302085"
       sodipodi:cy="-32.947948"
       sodipodi:cx="-191.74261"
       sodipodi:type="arc"
       id="path4803"
       style="fill:#46d04d;fill-opacity:0.70196078;fill-rule:evenodd;stroke-width:0.26458332" />
    <path
       transform="rotate(-103.64567)"
       d="m -198.98361,-44.384821 a 1.9016926,1.9016926 0 0 1 2.00425,-1.774424 1.9016926,1.9016926 0 0 1 1.79299,1.98767 1.9016926,1.9016926 0 0 1 -1.97092,1.811387 1.9016926,1.9016926 0 0 1 -1.82963,-1.953985"
       sodipodi:open="true"
       sodipodi:end="3.1697972"
       sodipodi:start="3.2069901"
       sodipodi:ry="1.9016926"
       sodipodi:rx="1.9016926"
       sodipodi:cy="-44.260544"
       sodipodi:cx="-197.08598"
       sodipodi:type="arc"
       id="path4805"
       style="fill:#228b22;fill-opacity:0.44705882;fill-rule:evenodd;stroke-width:0.26458332" />
    <path
       style="fill:#2c3d30;fill-opacity:0.30980392;fill-rule:evenodd;stroke-width:0.26458332"
       id="path4807"
       sodipodi:type="arc"
       sodipodi:cx="-189.38965"
       sodipodi:cy="-43.793049"
       sodipodi:rx="4.6302085"
       sodipodi:ry="4.6302085"
       sodipodi:start="3.2069901"
       sodipodi:end="3.1697972"
       sodipodi:open="true"
       d="m -194.00996,-44.095637 a 4.6302085,4.6302085 0 0 1 4.87993,-4.320336 4.6302085,4.6302085 0 0 1 4.36552,4.839543 4.6302085,4.6302085 0 0 1 -4.79874,4.410334 4.6302085,4.6302085 0 0 1 -4.45477,-4.757528"
       transform="rotate(-103.64567)" />
    <path
       transform="rotate(-103.64567)"
       d="m -184.55615,-38.928253 a 3.5778346,3.5778346 0 0 1 3.7708,-3.338392 3.5778346,3.5778346 0 0 1 3.37331,3.739591 3.5778346,3.5778346 0 0 1 -3.70807,3.407934 3.5778346,3.5778346 0 0 1 -3.44226,-3.676217"
       sodipodi:open="true"
       sodipodi:end="3.1697972"
       sodipodi:start="3.2069901"
       sodipodi:ry="3.5778346"
       sodipodi:rx="3.5778346"
       sodipodi:cy="-38.694439"
       sodipodi:cx="-180.98596"
       sodipodi:type="arc"
       id="path4813"
       style="fill:#32cd32;fill-opacity:0.30980392;fill-rule:evenodd;stroke-width:0.20444769" />
    <path
       transform="rotate(91.516948)"
       d="m 183.93755,-17.621092 a 1.9016926,1.9016926 0 0 1 2.00425,-1.774424 1.9016926,1.9016926 0 0 1 1.79298,1.98767 1.9016926,1.9016926 0 0 1 -1.97091,1.811387 1.9016926,1.9016926 0 0 1 -1.82963,-1.953985"
       sodipodi:open="true"
       sodipodi:end="3.1697972"
       sodipodi:start="3.2069901"
       sodipodi:ry="1.9016926"
       sodipodi:rx="1.9016926"
       sodipodi:cy="-17.496815"
       sodipodi:cx="185.83517"
       sodipodi:type="arc"
       id="path4819"
       style="fill:#228b22;fill-opacity:0.44705882;fill-rule:evenodd;stroke-width:0.26458332" />
    <path
       style="fill:#46d04d;fill-opacity:0.70196078;fill-rule:evenodd;stroke-width:0.26458332"
       id="path4821"
       sodipodi:type="arc"
       sodipodi:cx="-287.43387"
       sodipodi:cy="116.36985"
       sodipodi:rx="4.6302085"
       sodipodi:ry="4.6302085"
       sodipodi:start="3.2069901"
       sodipodi:end="3.1697972"
       sodipodi:open="true"
       d="m -292.05418,116.06726 a 4.6302085,4.6302085 0 0 1 4.87993,-4.32033 4.6302085,4.6302085 0 0 1 4.36552,4.83954 4.6302085,4.6302085 0 0 1 -4.79874,4.41033 4.6302085,4.6302085 0 0 1 -4.45477,-4.75753"
       transform="rotate(-103.64567)" />
    <path
       style="fill:#228b22;fill-opacity:0.44705882;fill-rule:evenodd;stroke-width:0.26458332"
       id="path4823"
       sodipodi:type="arc"
       sodipodi:cx="-292.20581"
       sodipodi:cy="105.67729"
       sodipodi:rx="1.9016926"
       sodipodi:ry="1.9016926"
       sodipodi:start="3.2069901"
       sodipodi:end="3.1697972"
       sodipodi:open="true"
       d="m -294.10344,105.55301 a 1.9016926,1.9016926 0 0 1 2.00426,-1.77442 1.9016926,1.9016926 0 0 1 1.79298,1.98767 1.9016926,1.9016926 0 0 1 -1.97091,1.81139 1.9016926,1.9016926 0 0 1 -1.82964,-1.95399"
       transform="rotate(-103.64567)" />
    <path
       transform="rotate(-103.64567)"
       d="m -288.44142,106.97193 a 4.6302085,4.6302085 0 0 1 4.87993,-4.32034 4.6302085,4.6302085 0 0 1 4.36552,4.83954 4.6302085,4.6302085 0 0 1 -4.79874,4.41034 4.6302085,4.6302085 0 0 1 -4.45476,-4.75753"
       sodipodi:open="true"
       sodipodi:end="3.1697972"
       sodipodi:start="3.2069901"
       sodipodi:ry="4.6302085"
       sodipodi:rx="4.6302085"
       sodipodi:cy="107.27451"
       sodipodi:cx="-283.82111"
       sodipodi:type="arc"
       id="path4825"
       style="fill:#2c3d30;fill-opacity:0.30980392;fill-rule:evenodd;stroke-width:0.26458332" />
    <path
       style="fill:#228b22;fill-opacity:0.44705882;fill-rule:evenodd;stroke-width:0.26458332"
       id="path4827"
       sodipodi:type="arc"
       sodipodi:cx="280.06482"
       sodipodi:cy="-178.37148"
       sodipodi:rx="1.9016926"
       sodipodi:ry="1.9016926"
       sodipodi:start="3.2069901"
       sodipodi:end="3.1697972"
       sodipodi:open="true"
       d="m 278.16719,-178.49575 a 1.9016926,1.9016926 0 0 1 2.00426,-1.77443 1.9016926,1.9016926 0 0 1 1.79298,1.98767 1.9016926,1.9016926 0 0 1 -1.97091,1.81139 1.9016926,1.9016926 0 0 1 -1.82964,-1.95398"
       transform="rotate(91.516948)" />
  </g>
</svg>
