<?xml version="1.0" encoding="UTF-8" standalone="no"?>
<!-- Generator: Adobe Illustrator 19.0.0, SVG Export Plug-In . SVG Version: 6.00 Build 0)  -->

<svg
   xmlns:dc="http://purl.org/dc/elements/1.1/"
   xmlns:cc="http://creativecommons.org/ns#"
   xmlns:rdf="http://www.w3.org/1999/02/22-rdf-syntax-ns#"
   xmlns:svg="http://www.w3.org/2000/svg"
   xmlns="http://www.w3.org/2000/svg"
   xmlns:sodipodi="http://sodipodi.sourceforge.net/DTD/sodipodi-0.dtd"
   xmlns:inkscape="http://www.inkscape.org/namespaces/inkscape"
   version="1.1"
   id="Capa_1"
   x="0px"
   y="0px"
   viewBox="0 0 676.74242 475.94523"
   xml:space="preserve"
   sodipodi:docname="circles.svg"
   width="676.74243"
   height="475.94525"
   inkscape:version="0.92.4 (5da689c313, 2019-01-14)"><metadata
   id="metadata1569"><rdf:RDF><cc:Work
       rdf:about=""><dc:format>image/svg+xml</dc:format><dc:type
         rdf:resource="http://purl.org/dc/dcmitype/StillImage" /><dc:title></dc:title></cc:Work></rdf:RDF></metadata><defs
   id="defs1567" /><sodipodi:namedview
   pagecolor="#ffffff"
   bordercolor="#666666"
   borderopacity="1"
   objecttolerance="10"
   gridtolerance="10"
   guidetolerance="10"
   inkscape:pageopacity="0"
   inkscape:pageshadow="2"
   inkscape:window-width="1822"
   inkscape:window-height="1051"
   id="namedview1565"
   showgrid="false"
   inkscape:zoom="0.67289194"
   inkscape:cx="-74.241282"
   inkscape:cy="319.46284"
   inkscape:window-x="89"
   inkscape:window-y="-9"
   inkscape:window-maximized="1"
   inkscape:current-layer="Capa_1" />





<g
   id="g1534"
   transform="translate(-8.9322042,-359.34488)">
</g>
<g
   id="g1536"
   transform="translate(-8.9322042,-359.34488)">
</g>
<g
   id="g1538"
   transform="translate(-8.9322042,-359.34488)">
</g>
<g
   id="g1540"
   transform="translate(-8.9322042,-359.34488)">
</g>
<g
   id="g1542"
   transform="translate(-8.9322042,-359.34488)">
</g>
<g
   id="g1544"
   transform="translate(-8.9322042,-359.34488)">
</g>
<g
   id="g1546"
   transform="translate(-8.9322042,-359.34488)">
</g>
<g
   id="g1548"
   transform="translate(-8.9322042,-359.34488)">
</g>
<g
   id="g1550"
   transform="translate(-8.9322042,-359.34488)">
</g>
<g
   id="g1552"
   transform="translate(-8.9322042,-359.34488)">
</g>
<g
   id="g1554"
   transform="translate(-8.9322042,-359.34488)">
</g>
<g
   id="g1556"
   transform="translate(-8.9322042,-359.34488)">
</g>
<g
   id="g1558"
   transform="translate(-8.9322042,-359.34488)">
</g>
<g
   id="g1560"
   transform="translate(-8.9322042,-359.34488)">
</g>
<g
   id="g1562"
   transform="translate(-8.9322042,-359.34488)">
</g>
<path
   style="fill:#3c9739;fill-opacity:0.26344084;fill-rule:evenodd;stroke-width:9.20634842"
   id="path6289"
   sodipodi:type="arc"
   sodipodi:cx="55.029613"
   sodipodi:cy="207.21393"
   sodipodi:rx="55.029613"
   sodipodi:ry="83.340034"
   sodipodi:start="3.2069901"
   sodipodi:end="3.1697972"
   sodipodi:open="true"
   d="M 0.11763411,201.76759 A 55.029613,83.340034 0 0 1 58.115113,124.005 55.029613,83.340034 0 0 1 109.99897,211.1129 55.029613,83.340034 0 0 1 52.966334,290.49536 55.029613,83.340034 0 0 1 0.02188648,204.86367" /><path
   d="M 37.844643,98.688895 A 69.621544,105.58924 0 0 1 111.22103,0.16610758 69.621544,105.58924 0 0 1 176.86267,110.52912 69.621544,105.58924 0 0 1 104.70697,211.10424 69.621544,105.58924 0 0 1 37.723506,102.61154"
   sodipodi:open="true"
   sodipodi:end="3.1697972"
   sodipodi:start="3.2069901"
   sodipodi:ry="105.58924"
   sodipodi:rx="69.621544"
   sodipodi:cy="105.58924"
   sodipodi:cx="107.31736"
   sodipodi:type="arc"
   id="path6443"
   style="fill:#395038;fill-opacity:0.38431373;fill-rule:evenodd;stroke-width:11.65585041" /><path
   d="m 566.80085,387.15885 a 55.029613,83.340034 0 0 1 57.99748,-77.76258 55.029613,83.340034 0 0 1 51.88386,87.1079 55.029613,83.340034 0 0 1 -57.03264,79.38246 55.029613,83.340034 0 0 1 -52.94445,-85.63169"
   sodipodi:open="true"
   sodipodi:end="3.1697972"
   sodipodi:start="3.2069901"
   sodipodi:ry="83.340034"
   sodipodi:rx="55.029613"
   sodipodi:cy="392.60519"
   sodipodi:cx="621.71283"
   sodipodi:type="arc"
   id="path6445"
   style="fill:#3c9739;fill-opacity:0.26344084;fill-rule:evenodd;stroke-width:9.20634842" /><path
   style="fill:#3c9739;fill-opacity:0.26344084;fill-rule:evenodd;stroke-width:2.57331657"
   id="path6447"
   sodipodi:type="arc"
   sodipodi:cx="568.51306"
   sodipodi:cy="293.98715"
   sodipodi:rx="13.989809"
   sodipodi:ry="25.612387"
   sodipodi:start="3.2069901"
   sodipodi:end="3.1697972"
   sodipodi:open="true"
   d="m 554.55316,292.31336 a 13.989809,25.612387 0 0 1 14.74431,-23.8983 13.989809,25.612387 0 0 1 13.19008,26.77034 13.989809,25.612387 0 0 1 -14.49902,24.39613 13.989809,25.612387 0 0 1 -13.45971,-26.31667" /><path
   d="m 93.053486,287.32099 a 13.989809,25.612387 0 0 1 14.744314,-23.8983 13.989809,25.612387 0 0 1 13.19008,26.77034 13.989809,25.612387 0 0 1 -14.49902,24.39613 13.989809,25.612387 0 0 1 -13.459715,-26.31667"
   sodipodi:open="true"
   sodipodi:end="3.1697972"
   sodipodi:start="3.2069901"
   sodipodi:ry="25.612387"
   sodipodi:rx="13.989809"
   sodipodi:cy="288.99478"
   sodipodi:cx="107.01339"
   sodipodi:type="arc"
   id="path6449"
   style="fill:#395038;fill-opacity:0.38431373;fill-rule:evenodd;stroke-width:2.57331657" /></svg>