<?xml version="1.0" encoding="UTF-8" standalone="no"?>
<!-- Created with Inkscape (http://www.inkscape.org/) -->

<svg
   xmlns:dc="http://purl.org/dc/elements/1.1/"
   xmlns:cc="http://creativecommons.org/ns#"
   xmlns:rdf="http://www.w3.org/1999/02/22-rdf-syntax-ns#"
   xmlns:svg="http://www.w3.org/2000/svg"
   xmlns="http://www.w3.org/2000/svg"
   xmlns:sodipodi="http://sodipodi.sourceforge.net/DTD/sodipodi-0.dtd"
   xmlns:inkscape="http://www.inkscape.org/namespaces/inkscape"
   width="992.29132"
   height="250.92912"
   viewBox="0 0 262.54375 66.391663"
   version="1.1"
   id="svg8"
   inkscape:version="0.92.4 (5da689c313, 2019-01-14)"
   sodipodi:docname="drawing.svg">
  <defs
     id="defs2">
    <style
       id="style964">.a{fill:none;stroke:#000;stroke-linecap:round;stroke-linejoin:round;}</style>
    <style
       id="style1075">.a{fill:none;stroke:#000;stroke-linecap:round;stroke-linejoin:round;}</style>
  </defs>
  <sodipodi:namedview
     id="base"
     pagecolor="#ffffff"
     bordercolor="#666666"
     borderopacity="1.0"
     inkscape:pageopacity="0.0"
     inkscape:pageshadow="2"
     inkscape:zoom="0.98994949"
     inkscape:cx="390.9154"
     inkscape:cy="219.71408"
     inkscape:document-units="mm"
     inkscape:current-layer="layer1"
     showgrid="false"
     units="px"
     inkscape:showpageshadow="false"
     inkscape:window-width="1822"
     inkscape:window-height="1051"
     inkscape:window-x="89"
     inkscape:window-y="-9"
     inkscape:window-maximized="1" />
  <metadata
     id="metadata5">
    <rdf:RDF>
      <cc:Work
         rdf:about="">
        <dc:format>image/svg+xml</dc:format>
        <dc:type
           rdf:resource="http://purl.org/dc/dcmitype/StillImage" />
        <dc:title></dc:title>
      </cc:Work>
    </rdf:RDF>
  </metadata>
  <g
     inkscape:label="Layer 1"
     inkscape:groupmode="layer"
     id="layer1"
     transform="translate(0,-230.60834)">
    <g
       id="g863"
       transform="matrix(0.26458333,0,0,0.26458333,138.52846,267.08222)">
	<path
   id="path859"
   d="m 71.977,11.926 c -0.001,0 -0.001,-10e-4 -0.002,-10e-4 -5.213,-2.49 -10.819,-0.501 -15.324,1.096 -2.304,0.817 -4.48,1.589 -6.093,1.589 -1.613,0 -3.789,-0.771 -6.092,-1.589 -4.504,-1.598 -10.11,-3.585 -15.327,-1.096 -7.744,3.707 -13.397,12.378 -9.219,21.779 1.294,2.919 2.501,5.15 3.472,6.942 1.876,3.467 3.009,5.56 3.009,9.145 0,5.575 1.669,23.824 9.084,34.196 3.744,5.243 7.675,7.059 7.841,7.134 0.557,0.252 1.214,0.139 1.657,-0.286 0.442,-0.425 0.581,-1.077 0.351,-1.645 -0.054,-0.132 -5.32,-13.321 -2.18,-21.899 1.75,-4.755 5.138,-7.43 7.24,-7.208 0.109,0.013 0.221,0.013 0.33,0 2.12,-0.224 5.49,2.454 7.236,7.206 3.144,8.58 -2.129,21.768 -2.183,21.9 -0.23,0.568 -0.092,1.22 0.35,1.645 0.286,0.274 0.66,0.419 1.041,0.419 0.208,0 0.417,-0.043 0.615,-0.132 0.166,-0.075 4.104,-1.891 7.849,-7.134 7.41,-10.374 9.078,-28.622 9.078,-34.197 0,-3.584 1.132,-5.676 3.008,-9.143 0.97,-1.793 2.177,-4.024 3.47,-6.941 4.183,-9.396 -1.467,-18.069 -9.211,-21.78 z m 6.468,20.562 c -1.247,2.812 -2.374,4.895 -3.368,6.732 -1.956,3.615 -3.369,6.227 -3.369,10.571 0,6.697 -2.083,23.442 -8.519,32.453 -1.068,1.495 -2.15,2.67 -3.122,3.575 1.435,-4.995 3.046,-13.179 0.708,-19.563 -1.971,-5.365 -6.101,-9.186 -9.806,-9.186 -0.138,0 -0.275,0.005 -0.411,0.016 -3.807,-0.305 -8.174,3.605 -10.222,9.171 C 38,72.638 39.608,80.819 41.041,85.814 40.071,84.91 38.991,83.736 37.925,82.243 31.484,73.233 29.4,56.488 29.4,49.791 29.4,45.447 27.986,42.834 26.029,39.219 25.035,37.382 23.908,35.3 22.661,32.487 20.166,26.874 21.535,18.891 30.432,14.633 c 4.09,-1.955 8.84,-0.271 13.031,1.216 2.554,0.906 4.966,1.761 7.095,1.761 2.129,0 4.542,-0.855 7.096,-1.761 4.189,-1.486 8.936,-3.169 13.029,-1.217 8.897,4.265 10.261,12.244 7.762,17.856 z"
   inkscape:connector-curvature="0" />

	<path
   id="path861"
   d="m 35.869,21.015 c 0.824,-0.005 1.491,-0.674 1.491,-1.5 0,-0.829 -0.671,-1.5 -1.5,-1.5 -0.151,0 -3.723,0.031 -6.193,2.735 -1.744,1.91 -2.474,4.591 -2.167,7.967 0.654,7.34 7.12,12.863 7.395,13.095 0.281,0.237 0.625,0.353 0.965,0.353 0.427,0 0.852,-0.182 1.148,-0.534 0.534,-0.634 0.453,-1.58 -0.181,-2.114 -0.058,-0.049 -5.793,-4.944 -6.339,-11.068 -0.226,-2.49 0.237,-4.392 1.375,-5.653 1.555,-1.725 3.964,-1.781 4.006,-1.781 z"
   inkscape:connector-curvature="0" />

</g>
    <g
       transform="matrix(0.14149228,-0.05557347,0.05557347,0.14149228,89.398669,239.27395)"
       id="g1127">
	<path
   inkscape:connector-curvature="0"
   d="m 71.977,11.926 c -0.001,0 -0.001,-10e-4 -0.002,-10e-4 -5.213,-2.49 -10.819,-0.501 -15.324,1.096 -2.304,0.817 -4.48,1.589 -6.093,1.589 -1.613,0 -3.789,-0.771 -6.092,-1.589 -4.504,-1.598 -10.11,-3.585 -15.327,-1.096 -7.744,3.707 -13.397,12.378 -9.219,21.779 1.294,2.919 2.501,5.15 3.472,6.942 1.876,3.467 3.009,5.56 3.009,9.145 0,5.575 1.669,23.824 9.084,34.196 3.744,5.243 7.675,7.059 7.841,7.134 0.557,0.252 1.214,0.139 1.657,-0.286 0.442,-0.425 0.581,-1.077 0.351,-1.645 -0.054,-0.132 -5.32,-13.321 -2.18,-21.899 1.75,-4.755 5.138,-7.43 7.24,-7.208 0.109,0.013 0.221,0.013 0.33,0 2.12,-0.224 5.49,2.454 7.236,7.206 3.144,8.58 -2.129,21.768 -2.183,21.9 -0.23,0.568 -0.092,1.22 0.35,1.645 0.286,0.274 0.66,0.419 1.041,0.419 0.208,0 0.417,-0.043 0.615,-0.132 0.166,-0.075 4.104,-1.891 7.849,-7.134 7.41,-10.374 9.078,-28.622 9.078,-34.197 0,-3.584 1.132,-5.676 3.008,-9.143 0.97,-1.793 2.177,-4.024 3.47,-6.941 4.183,-9.396 -1.467,-18.069 -9.211,-21.78 z m 6.468,20.562 c -1.247,2.812 -2.374,4.895 -3.368,6.732 -1.956,3.615 -3.369,6.227 -3.369,10.571 0,6.697 -2.083,23.442 -8.519,32.453 -1.068,1.495 -2.15,2.67 -3.122,3.575 1.435,-4.995 3.046,-13.179 0.708,-19.563 -1.971,-5.365 -6.101,-9.186 -9.806,-9.186 -0.138,0 -0.275,0.005 -0.411,0.016 -3.807,-0.305 -8.174,3.605 -10.222,9.171 C 38,72.638 39.608,80.819 41.041,85.814 40.071,84.91 38.991,83.736 37.925,82.243 31.484,73.233 29.4,56.488 29.4,49.791 29.4,45.447 27.986,42.834 26.029,39.219 25.035,37.382 23.908,35.3 22.661,32.487 20.166,26.874 21.535,18.891 30.432,14.633 c 4.09,-1.955 8.84,-0.271 13.031,1.216 2.554,0.906 4.966,1.761 7.095,1.761 2.129,0 4.542,-0.855 7.096,-1.761 4.189,-1.486 8.936,-3.169 13.029,-1.217 8.897,4.265 10.261,12.244 7.762,17.856 z"
   id="path1123" />

	<path
   inkscape:connector-curvature="0"
   d="m 35.869,21.015 c 0.824,-0.005 1.491,-0.674 1.491,-1.5 0,-0.829 -0.671,-1.5 -1.5,-1.5 -0.151,0 -3.723,0.031 -6.193,2.735 -1.744,1.91 -2.474,4.591 -2.167,7.967 0.654,7.34 7.12,12.863 7.395,13.095 0.281,0.237 0.625,0.353 0.965,0.353 0.427,0 0.852,-0.182 1.148,-0.534 0.534,-0.634 0.453,-1.58 -0.181,-2.114 -0.058,-0.049 -5.793,-4.944 -6.339,-11.068 -0.226,-2.49 0.237,-4.392 1.375,-5.653 1.555,-1.725 3.964,-1.781 4.006,-1.781 z"
   id="path1125" />

</g>
    <g
       id="g1183"
       transform="matrix(0.2045971,0.05684391,-0.05684391,0.2045971,66.371185,263.43904)">
	<path
   id="path1179"
   d="m -137.9642,-76.053295 c -0.001,0 -0.001,-10e-4 -0.002,-10e-4 -5.213,-2.49 -10.819,-0.501 -15.324,1.096 -2.304,0.817 -4.48,1.589 -6.093,1.589 -1.613,0 -3.789,-0.771 -6.092,-1.589 -4.504,-1.598 -10.11,-3.585 -15.327,-1.096 -7.744,3.707 -13.397,12.378 -9.219,21.779 1.294,2.919 2.501,5.15 3.472,6.942 1.876,3.467 3.009,5.56 3.009,9.145 0,5.575 1.669,23.824 9.084,34.1960001 3.744,5.243 7.675,7.059 7.841,7.134 0.557,0.252 1.214,0.139 1.657,-0.286 0.442,-0.425 0.581,-1.077 0.351,-1.645 -0.054,-0.132 -5.32,-13.3210001 -2.18,-21.8990001 1.75,-4.755 5.138,-7.43 7.24,-7.208 0.109,0.013 0.221,0.013 0.33,0 2.12,-0.224 5.49,2.454 7.236,7.206 3.144,8.58 -2.129,21.7680001 -2.183,21.9000001 -0.23,0.568 -0.092,1.22 0.35,1.645 0.286,0.274 0.66,0.419 1.041,0.419 0.208,0 0.417,-0.043 0.615,-0.132 0.166,-0.075 4.104,-1.891 7.849,-7.134 7.41,-10.3740001 9.078,-28.6220001 9.078,-34.1970001 0,-3.584 1.132,-5.676 3.008,-9.143 0.97,-1.793 2.177,-4.024 3.47,-6.941 4.183,-9.396 -1.467,-18.069 -9.211,-21.78 z m 6.468,20.562 c -1.247,2.812 -2.374,4.895 -3.368,6.732 -1.956,3.615 -3.369,6.227 -3.369,10.571 0,6.697 -2.083,23.442 -8.519,32.4530001 -1.068,1.495 -2.15,2.67 -3.122,3.575 1.435,-4.995 3.046,-13.1790001 0.708,-19.5630001 -1.971,-5.365 -6.101,-9.186 -9.806,-9.186 -0.138,0 -0.275,0.005 -0.411,0.016 -3.807,-0.305 -8.174,3.605 -10.222,9.171 -2.336,6.381 -0.728,14.5620001 0.705,19.5570001 -0.97,-0.904 -2.05,-2.078 -3.116,-3.571 -6.441,-9.0100001 -8.525,-25.7550001 -8.525,-32.4520001 0,-4.344 -1.414,-6.957 -3.371,-10.572 -0.994,-1.837 -2.121,-3.919 -3.368,-6.732 -2.495,-5.613 -1.126,-13.596 7.771,-17.854 4.09,-1.955 8.84,-0.271 13.031,1.216 2.554,0.906 4.966,1.761 7.095,1.761 2.129,0 4.542,-0.855 7.096,-1.761 4.189,-1.486 8.936,-3.169 13.029,-1.217 8.897,4.265 10.261,12.244 7.762,17.856 z"
   inkscape:connector-curvature="0" />

	
</g>
    <g
       transform="matrix(0.13495289,-0.03535456,0.03535456,0.13495289,238.15958,276.77377)"
       id="g1215"
       inkscape:transform-center-x="3.4745039">
	<path
   inkscape:connector-curvature="0"
   d="m 71.977,11.926 c -0.001,0 -0.001,-10e-4 -0.002,-10e-4 -5.213,-2.49 -10.819,-0.501 -15.324,1.096 -2.304,0.817 -4.48,1.589 -6.093,1.589 -1.613,0 -3.789,-0.771 -6.092,-1.589 -4.504,-1.598 -10.11,-3.585 -15.327,-1.096 -7.744,3.707 -13.397,12.378 -9.219,21.779 1.294,2.919 2.501,5.15 3.472,6.942 1.876,3.467 3.009,5.56 3.009,9.145 0,5.575 1.669,23.824 9.084,34.196 3.744,5.243 7.675,7.059 7.841,7.134 0.557,0.252 1.214,0.139 1.657,-0.286 0.442,-0.425 0.581,-1.077 0.351,-1.645 -0.054,-0.132 -5.32,-13.321 -2.18,-21.899 1.75,-4.755 5.138,-7.43 7.24,-7.208 0.109,0.013 0.221,0.013 0.33,0 2.12,-0.224 5.49,2.454 7.236,7.206 3.144,8.58 -2.129,21.768 -2.183,21.9 -0.23,0.568 -0.092,1.22 0.35,1.645 0.286,0.274 0.66,0.419 1.041,0.419 0.208,0 0.417,-0.043 0.615,-0.132 0.166,-0.075 4.104,-1.891 7.849,-7.134 7.41,-10.374 9.078,-28.622 9.078,-34.197 0,-3.584 1.132,-5.676 3.008,-9.143 0.97,-1.793 2.177,-4.024 3.47,-6.941 4.183,-9.396 -1.467,-18.069 -9.211,-21.78 z m 6.468,20.562 c -1.247,2.812 -2.374,4.895 -3.368,6.732 -1.956,3.615 -3.369,6.227 -3.369,10.571 0,6.697 -2.083,23.442 -8.519,32.453 -1.068,1.495 -2.15,2.67 -3.122,3.575 1.435,-4.995 3.046,-13.179 0.708,-19.563 -1.971,-5.365 -6.101,-9.186 -9.806,-9.186 -0.138,0 -0.275,0.005 -0.411,0.016 -3.807,-0.305 -8.174,3.605 -10.222,9.171 C 38,72.638 39.608,80.819 41.041,85.814 40.071,84.91 38.991,83.736 37.925,82.243 31.484,73.233 29.4,56.488 29.4,49.791 29.4,45.447 27.986,42.834 26.029,39.219 25.035,37.382 23.908,35.3 22.661,32.487 20.166,26.874 21.535,18.891 30.432,14.633 c 4.09,-1.955 8.84,-0.271 13.031,1.216 2.554,0.906 4.966,1.761 7.095,1.761 2.129,0 4.542,-0.855 7.096,-1.761 4.189,-1.486 8.936,-3.169 13.029,-1.217 8.897,4.265 10.261,12.244 7.762,17.856 z"
   id="path1211" />

	<path
   inkscape:connector-curvature="0"
   d="m 35.869,21.015 c 0.824,-0.005 1.491,-0.674 1.491,-1.5 0,-0.829 -0.671,-1.5 -1.5,-1.5 -0.151,0 -3.723,0.031 -6.193,2.735 -1.744,1.91 -2.474,4.591 -2.167,7.967 0.654,7.34 7.12,12.863 7.395,13.095 0.281,0.237 0.625,0.353 0.965,0.353 0.427,0 0.852,-0.182 1.148,-0.534 0.534,-0.634 0.453,-1.58 -0.181,-2.114 -0.058,-0.049 -5.793,-4.944 -6.339,-11.068 -0.226,-2.49 0.237,-4.392 1.375,-5.653 1.555,-1.725 3.964,-1.781 4.006,-1.781 z"
   id="path1213" />

</g>
    <g
       inkscape:transform-center-x="1.2506137"
       id="g1221"
       transform="matrix(0.12451496,0.06291465,-0.06291465,0.12451496,204.40913,233.65984)"
       inkscape:transform-center-y="-1.9828521">
	<path
   id="path1217"
   d="m 71.977,11.926 c -0.001,0 -0.001,-10e-4 -0.002,-10e-4 -5.213,-2.49 -10.819,-0.501 -15.324,1.096 -2.304,0.817 -4.48,1.589 -6.093,1.589 -1.613,0 -3.789,-0.771 -6.092,-1.589 -4.504,-1.598 -10.11,-3.585 -15.327,-1.096 -7.744,3.707 -13.397,12.378 -9.219,21.779 1.294,2.919 2.501,5.15 3.472,6.942 1.876,3.467 3.009,5.56 3.009,9.145 0,5.575 1.669,23.824 9.084,34.196 3.744,5.243 7.675,7.059 7.841,7.134 0.557,0.252 1.214,0.139 1.657,-0.286 0.442,-0.425 0.581,-1.077 0.351,-1.645 -0.054,-0.132 -5.32,-13.321 -2.18,-21.899 1.75,-4.755 5.138,-7.43 7.24,-7.208 0.109,0.013 0.221,0.013 0.33,0 2.12,-0.224 5.49,2.454 7.236,7.206 3.144,8.58 -2.129,21.768 -2.183,21.9 -0.23,0.568 -0.092,1.22 0.35,1.645 0.286,0.274 0.66,0.419 1.041,0.419 0.208,0 0.417,-0.043 0.615,-0.132 0.166,-0.075 4.104,-1.891 7.849,-7.134 7.41,-10.374 9.078,-28.622 9.078,-34.197 0,-3.584 1.132,-5.676 3.008,-9.143 0.97,-1.793 2.177,-4.024 3.47,-6.941 4.183,-9.396 -1.467,-18.069 -9.211,-21.78 z m 6.468,20.562 c -1.247,2.812 -2.374,4.895 -3.368,6.732 -1.956,3.615 -3.369,6.227 -3.369,10.571 0,6.697 -2.083,23.442 -8.519,32.453 -1.068,1.495 -2.15,2.67 -3.122,3.575 1.435,-4.995 3.046,-13.179 0.708,-19.563 -1.971,-5.365 -6.101,-9.186 -9.806,-9.186 -0.138,0 -0.275,0.005 -0.411,0.016 -3.807,-0.305 -8.174,3.605 -10.222,9.171 C 38,72.638 39.608,80.819 41.041,85.814 40.071,84.91 38.991,83.736 37.925,82.243 31.484,73.233 29.4,56.488 29.4,49.791 29.4,45.447 27.986,42.834 26.029,39.219 25.035,37.382 23.908,35.3 22.661,32.487 20.166,26.874 21.535,18.891 30.432,14.633 c 4.09,-1.955 8.84,-0.271 13.031,1.216 2.554,0.906 4.966,1.761 7.095,1.761 2.129,0 4.542,-0.855 7.096,-1.761 4.189,-1.486 8.936,-3.169 13.029,-1.217 8.897,4.265 10.261,12.244 7.762,17.856 z"
   inkscape:connector-curvature="0" />

	<path
   id="path1219"
   d="m 35.869,21.015 c 0.824,-0.005 1.491,-0.674 1.491,-1.5 0,-0.829 -0.671,-1.5 -1.5,-1.5 -0.151,0 -3.723,0.031 -6.193,2.735 -1.744,1.91 -2.474,4.591 -2.167,7.967 0.654,7.34 7.12,12.863 7.395,13.095 0.281,0.237 0.625,0.353 0.965,0.353 0.427,0 0.852,-0.182 1.148,-0.534 0.534,-0.634 0.453,-1.58 -0.181,-2.114 -0.058,-0.049 -5.793,-4.944 -6.339,-11.068 -0.226,-2.49 0.237,-4.392 1.375,-5.653 1.555,-1.725 3.964,-1.781 4.006,-1.781 z"
   inkscape:connector-curvature="0" />

</g>
    <g
       inkscape:transform-center-y="-0.8217108"
       transform="matrix(0.13875015,0.0145129,-0.0145129,0.13875015,209.87602,249.59706)"
       id="g1227"
       inkscape:transform-center-x="2.1909792">
	<path
   inkscape:connector-curvature="0"
   d="m 71.977,11.926 c -0.001,0 -0.001,-10e-4 -0.002,-10e-4 -5.213,-2.49 -10.819,-0.501 -15.324,1.096 -2.304,0.817 -4.48,1.589 -6.093,1.589 -1.613,0 -3.789,-0.771 -6.092,-1.589 -4.504,-1.598 -10.11,-3.585 -15.327,-1.096 -7.744,3.707 -13.397,12.378 -9.219,21.779 1.294,2.919 2.501,5.15 3.472,6.942 1.876,3.467 3.009,5.56 3.009,9.145 0,5.575 1.669,23.824 9.084,34.196 3.744,5.243 7.675,7.059 7.841,7.134 0.557,0.252 1.214,0.139 1.657,-0.286 0.442,-0.425 0.581,-1.077 0.351,-1.645 -0.054,-0.132 -5.32,-13.321 -2.18,-21.899 1.75,-4.755 5.138,-7.43 7.24,-7.208 0.109,0.013 0.221,0.013 0.33,0 2.12,-0.224 5.49,2.454 7.236,7.206 3.144,8.58 -2.129,21.768 -2.183,21.9 -0.23,0.568 -0.092,1.22 0.35,1.645 0.286,0.274 0.66,0.419 1.041,0.419 0.208,0 0.417,-0.043 0.615,-0.132 0.166,-0.075 4.104,-1.891 7.849,-7.134 7.41,-10.374 9.078,-28.622 9.078,-34.197 0,-3.584 1.132,-5.676 3.008,-9.143 0.97,-1.793 2.177,-4.024 3.47,-6.941 4.183,-9.396 -1.467,-18.069 -9.211,-21.78 z m 6.468,20.562 c -1.247,2.812 -2.374,4.895 -3.368,6.732 -1.956,3.615 -3.369,6.227 -3.369,10.571 0,6.697 -2.083,23.442 -8.519,32.453 -1.068,1.495 -2.15,2.67 -3.122,3.575 1.435,-4.995 3.046,-13.179 0.708,-19.563 -1.971,-5.365 -6.101,-9.186 -9.806,-9.186 -0.138,0 -0.275,0.005 -0.411,0.016 -3.807,-0.305 -8.174,3.605 -10.222,9.171 C 38,72.638 39.608,80.819 41.041,85.814 40.071,84.91 38.991,83.736 37.925,82.243 31.484,73.233 29.4,56.488 29.4,49.791 29.4,45.447 27.986,42.834 26.029,39.219 25.035,37.382 23.908,35.3 22.661,32.487 20.166,26.874 21.535,18.891 30.432,14.633 c 4.09,-1.955 8.84,-0.271 13.031,1.216 2.554,0.906 4.966,1.761 7.095,1.761 2.129,0 4.542,-0.855 7.096,-1.761 4.189,-1.486 8.936,-3.169 13.029,-1.217 8.897,4.265 10.261,12.244 7.762,17.856 z"
   id="path1223" />

	<path
   inkscape:connector-curvature="0"
   d="m 35.869,21.015 c 0.824,-0.005 1.491,-0.674 1.491,-1.5 0,-0.829 -0.671,-1.5 -1.5,-1.5 -0.151,0 -3.723,0.031 -6.193,2.735 -1.744,1.91 -2.474,4.591 -2.167,7.967 0.654,7.34 7.12,12.863 7.395,13.095 0.281,0.237 0.625,0.353 0.965,0.353 0.427,0 0.852,-0.182 1.148,-0.534 0.534,-0.634 0.453,-1.58 -0.181,-2.114 -0.058,-0.049 -5.793,-4.944 -6.339,-11.068 -0.226,-2.49 0.237,-4.392 1.375,-5.653 1.555,-1.725 3.964,-1.781 4.006,-1.781 z"
   id="path1225" />

</g>
    <g
       inkscape:transform-center-x="4.9065875"
       id="g1233"
       transform="matrix(0.17323297,-0.14158263,0.14158263,0.17323297,117.74657,246.45393)"
       inkscape:transform-center-y="1.104346">
	<path
   id="path1229"
   d="m 71.977,11.926 c -0.001,0 -0.001,-10e-4 -0.002,-10e-4 -5.213,-2.49 -10.819,-0.501 -15.324,1.096 -2.304,0.817 -4.48,1.589 -6.093,1.589 -1.613,0 -3.789,-0.771 -6.092,-1.589 -4.504,-1.598 -10.11,-3.585 -15.327,-1.096 -7.744,3.707 -13.397,12.378 -9.219,21.779 1.294,2.919 2.501,5.15 3.472,6.942 1.876,3.467 3.009,5.56 3.009,9.145 0,5.575 1.669,23.824 9.084,34.196 3.744,5.243 7.675,7.059 7.841,7.134 0.557,0.252 1.214,0.139 1.657,-0.286 0.442,-0.425 0.581,-1.077 0.351,-1.645 -0.054,-0.132 -5.32,-13.321 -2.18,-21.899 1.75,-4.755 5.138,-7.43 7.24,-7.208 0.109,0.013 0.221,0.013 0.33,0 2.12,-0.224 5.49,2.454 7.236,7.206 3.144,8.58 -2.129,21.768 -2.183,21.9 -0.23,0.568 -0.092,1.22 0.35,1.645 0.286,0.274 0.66,0.419 1.041,0.419 0.208,0 0.417,-0.043 0.615,-0.132 0.166,-0.075 4.104,-1.891 7.849,-7.134 7.41,-10.374 9.078,-28.622 9.078,-34.197 0,-3.584 1.132,-5.676 3.008,-9.143 0.97,-1.793 2.177,-4.024 3.47,-6.941 4.183,-9.396 -1.467,-18.069 -9.211,-21.78 z m 6.468,20.562 c -1.247,2.812 -2.374,4.895 -3.368,6.732 -1.956,3.615 -3.369,6.227 -3.369,10.571 0,6.697 -2.083,23.442 -8.519,32.453 -1.068,1.495 -2.15,2.67 -3.122,3.575 1.435,-4.995 3.046,-13.179 0.708,-19.563 -1.971,-5.365 -6.101,-9.186 -9.806,-9.186 -0.138,0 -0.275,0.005 -0.411,0.016 -3.807,-0.305 -8.174,3.605 -10.222,9.171 C 38,72.638 39.608,80.819 41.041,85.814 40.071,84.91 38.991,83.736 37.925,82.243 31.484,73.233 29.4,56.488 29.4,49.791 29.4,45.447 27.986,42.834 26.029,39.219 25.035,37.382 23.908,35.3 22.661,32.487 20.166,26.874 21.535,18.891 30.432,14.633 c 4.09,-1.955 8.84,-0.271 13.031,1.216 2.554,0.906 4.966,1.761 7.095,1.761 2.129,0 4.542,-0.855 7.096,-1.761 4.189,-1.486 8.936,-3.169 13.029,-1.217 8.897,4.265 10.261,12.244 7.762,17.856 z"
   inkscape:connector-curvature="0" />

	<path
   id="path1231"
   d="m 35.869,21.015 c 0.824,-0.005 1.491,-0.674 1.491,-1.5 0,-0.829 -0.671,-1.5 -1.5,-1.5 -0.151,0 -3.723,0.031 -6.193,2.735 -1.744,1.91 -2.474,4.591 -2.167,7.967 0.654,7.34 7.12,12.863 7.395,13.095 0.281,0.237 0.625,0.353 0.965,0.353 0.427,0 0.852,-0.182 1.148,-0.534 0.534,-0.634 0.453,-1.58 -0.181,-2.114 -0.058,-0.049 -5.793,-4.944 -6.339,-11.068 -0.226,-2.49 0.237,-4.392 1.375,-5.653 1.555,-1.725 3.964,-1.781 4.006,-1.781 z"
   inkscape:connector-curvature="0" />

</g>
    <g
       inkscape:transform-center-y="-1.3788386"
       transform="matrix(0.22223117,0.02585753,-0.02585753,0.22223117,54.784931,258.6609)"
       id="g1239"
       inkscape:transform-center-x="3.4382451">
	<path
   inkscape:connector-curvature="0"
   d="m 83.376642,47.882202 c -0.001,0 -0.001,-10e-4 -0.002,-10e-4 -5.213,-2.49 -10.819,-0.501 -15.324,1.096 -2.304,0.817 -4.48,1.589 -6.093,1.589 -1.613,0 -3.789,-0.771 -6.092,-1.589 -4.504,-1.598 -10.11,-3.585 -15.327,-1.096 -7.744,3.707 -13.397,12.378 -9.219,21.779 1.294,2.919 2.501,5.15 3.472,6.942 1.876,3.467 3.009,5.56 3.009,9.145 0,5.575 1.669,23.823998 9.084,34.195998 3.744,5.243 7.675,7.059 7.841,7.134 0.557,0.252 1.214,0.139 1.657,-0.286 0.442,-0.425 0.581,-1.077 0.351,-1.645 -0.054,-0.132 -5.32,-13.321 -2.18,-21.899 1.75,-4.754998 5.138,-7.429998 7.24,-7.207998 0.109,0.013 0.221,0.013 0.33,0 2.12,-0.224 5.49,2.454 7.236,7.205998 3.144,8.58 -2.129,21.768 -2.183,21.9 -0.23,0.568 -0.092,1.22 0.35,1.645 0.286,0.274 0.66,0.419 1.041,0.419 0.208,0 0.417,-0.043 0.615,-0.132 0.166,-0.075 4.104,-1.891 7.849,-7.134 7.41,-10.374 9.078,-28.621998 9.078,-34.196998 0,-3.584 1.132,-5.676 3.008,-9.143 0.97,-1.793 2.177,-4.024 3.47,-6.941 4.183,-9.396 -1.467,-18.069 -9.211,-21.78 z m 6.468,20.562 c -1.247,2.812 -2.374,4.895 -3.368,6.732 -1.956,3.615 -3.369,6.227 -3.369,10.571 0,6.697 -2.083,23.441998 -8.519,32.452998 -1.068,1.495 -2.15,2.67 -3.122,3.575 1.435,-4.995 3.046,-13.179 0.708,-19.563 -1.971,-5.364998 -6.101,-9.185998 -9.806,-9.185998 -0.138,0 -0.275,0.005 -0.411,0.016 -3.807,-0.305 -8.174,3.605 -10.222,9.170998 -2.336,6.381 -0.728,14.562 0.705,19.557 -0.97,-0.904 -2.05,-2.078 -3.116,-3.571 -6.441,-9.01 -8.525,-25.754998 -8.525,-32.451998 0,-4.344 -1.414,-6.957 -3.371,-10.572 -0.994,-1.837 -2.121,-3.919 -3.368,-6.732 -2.495,-5.613 -1.126,-13.596 7.771,-17.854 4.09,-1.955 8.84,-0.271 13.031,1.216 2.554,0.906 4.966,1.761 7.095,1.761 2.129,0 4.542,-0.855 7.096,-1.761 4.189,-1.486 8.936,-3.169 13.029,-1.217 8.897,4.265 10.261,12.244 7.762,17.856 z"
   id="path1235" />

	<path
   inkscape:connector-curvature="0"
   d="m 47.406708,58.157802 c 0.824,-0.005 1.491,-0.674 1.491,-1.5 0,-0.829 -0.671,-1.5 -1.5,-1.5 -0.151,0 -3.723,0.031 -6.193,2.735 -1.744,1.91 -2.474,4.591 -2.167,7.967 0.654,7.34 7.12,12.863 7.395,13.095 0.281,0.237 0.625,0.353 0.965,0.353 0.427,0 0.852,-0.182 1.148,-0.534 0.534,-0.634 0.453,-1.58 -0.181,-2.114 -0.058,-0.049 -5.793,-4.944 -6.339,-11.068 -0.226,-2.49 0.237,-4.392 1.375,-5.653 1.555,-1.725 3.964,-1.781 4.006,-1.781 z"
   id="path1237" />

</g>
    <g
       transform="matrix(0.12366618,-0.0586906,0.0586906,0.12366618,31.91864,264.27883)"
       id="g1273">
	<path
   inkscape:connector-curvature="0"
   d="m -137.9642,-76.053295 c -0.001,0 -0.001,-10e-4 -0.002,-10e-4 -5.213,-2.49 -10.819,-0.501 -15.324,1.096 -2.304,0.817 -4.48,1.589 -6.093,1.589 -1.613,0 -3.789,-0.771 -6.092,-1.589 -4.504,-1.598 -10.11,-3.585 -15.327,-1.096 -7.744,3.707 -13.397,12.378 -9.219,21.779 1.294,2.919 2.501,5.15 3.472,6.942 1.876,3.467 3.009,5.56 3.009,9.145 0,5.575 1.669,23.824 9.084,34.1960001 3.744,5.243 7.675,7.059 7.841,7.134 0.557,0.252 1.214,0.139 1.657,-0.286 0.442,-0.425 0.581,-1.077 0.351,-1.645 -0.054,-0.132 -5.32,-13.3210001 -2.18,-21.8990001 1.75,-4.755 5.138,-7.43 7.24,-7.208 0.109,0.013 0.221,0.013 0.33,0 2.12,-0.224 5.49,2.454 7.236,7.206 3.144,8.58 -2.129,21.7680001 -2.183,21.9000001 -0.23,0.568 -0.092,1.22 0.35,1.645 0.286,0.274 0.66,0.419 1.041,0.419 0.208,0 0.417,-0.043 0.615,-0.132 0.166,-0.075 4.104,-1.891 7.849,-7.134 7.41,-10.3740001 9.078,-28.6220001 9.078,-34.1970001 0,-3.584 1.132,-5.676 3.008,-9.143 0.97,-1.793 2.177,-4.024 3.47,-6.941 4.183,-9.396 -1.467,-18.069 -9.211,-21.78 z m 6.468,20.562 c -1.247,2.812 -2.374,4.895 -3.368,6.732 -1.956,3.615 -3.369,6.227 -3.369,10.571 0,6.697 -2.083,23.442 -8.519,32.4530001 -1.068,1.495 -2.15,2.67 -3.122,3.575 1.435,-4.995 3.046,-13.1790001 0.708,-19.5630001 -1.971,-5.365 -6.101,-9.186 -9.806,-9.186 -0.138,0 -0.275,0.005 -0.411,0.016 -3.807,-0.305 -8.174,3.605 -10.222,9.171 -2.336,6.381 -0.728,14.5620001 0.705,19.5570001 -0.97,-0.904 -2.05,-2.078 -3.116,-3.571 -6.441,-9.0100001 -8.525,-25.7550001 -8.525,-32.4520001 0,-4.344 -1.414,-6.957 -3.371,-10.572 -0.994,-1.837 -2.121,-3.919 -3.368,-6.732 -2.495,-5.613 -1.126,-13.596 7.771,-17.854 4.09,-1.955 8.84,-0.271 13.031,1.216 2.554,0.906 4.966,1.761 7.095,1.761 2.129,0 4.542,-0.855 7.096,-1.761 4.189,-1.486 8.936,-3.169 13.029,-1.217 8.897,4.265 10.261,12.244 7.762,17.856 z"
   id="path1271" />

	
</g>
    <g
       inkscape:transform-center-x="3.3231441"
       id="g1279"
       transform="matrix(0.11917385,-0.08123032,0.08123032,0.11917385,24.257221,266.84297)"
       inkscape:transform-center-y="0.58120292">
	<path
   id="path1275"
   d="m 83.376642,47.882202 c -0.001,0 -0.001,-10e-4 -0.002,-10e-4 -5.213,-2.49 -10.819,-0.501 -15.324,1.096 -2.304,0.817 -4.48,1.589 -6.093,1.589 -1.613,0 -3.789,-0.771 -6.092,-1.589 -4.504,-1.598 -10.11,-3.585 -15.327,-1.096 -7.744,3.707 -13.397,12.378 -9.219,21.779 1.294,2.919 2.501,5.15 3.472,6.942 1.876,3.467 3.009,5.56 3.009,9.145 0,5.575 1.669,23.823998 9.084,34.195998 3.744,5.243 7.675,7.059 7.841,7.134 0.557,0.252 1.214,0.139 1.657,-0.286 0.442,-0.425 0.581,-1.077 0.351,-1.645 -0.054,-0.132 -5.32,-13.321 -2.18,-21.899 1.75,-4.754998 5.138,-7.429998 7.24,-7.207998 0.109,0.013 0.221,0.013 0.33,0 2.12,-0.224 5.49,2.454 7.236,7.205998 3.144,8.58 -2.129,21.768 -2.183,21.9 -0.23,0.568 -0.092,1.22 0.35,1.645 0.286,0.274 0.66,0.419 1.041,0.419 0.208,0 0.417,-0.043 0.615,-0.132 0.166,-0.075 4.104,-1.891 7.849,-7.134 7.41,-10.374 9.078,-28.621998 9.078,-34.196998 0,-3.584 1.132,-5.676 3.008,-9.143 0.97,-1.793 2.177,-4.024 3.47,-6.941 4.183,-9.396 -1.467,-18.069 -9.211,-21.78 z m 6.468,20.562 c -1.247,2.812 -2.374,4.895 -3.368,6.732 -1.956,3.615 -3.369,6.227 -3.369,10.571 0,6.697 -2.083,23.441998 -8.519,32.452998 -1.068,1.495 -2.15,2.67 -3.122,3.575 1.435,-4.995 3.046,-13.179 0.708,-19.563 -1.971,-5.364998 -6.101,-9.185998 -9.806,-9.185998 -0.138,0 -0.275,0.005 -0.411,0.016 -3.807,-0.305 -8.174,3.605 -10.222,9.170998 -2.336,6.381 -0.728,14.562 0.705,19.557 -0.97,-0.904 -2.05,-2.078 -3.116,-3.571 -6.441,-9.01 -8.525,-25.754998 -8.525,-32.451998 0,-4.344 -1.414,-6.957 -3.371,-10.572 -0.994,-1.837 -2.121,-3.919 -3.368,-6.732 -2.495,-5.613 -1.126,-13.596 7.771,-17.854 4.09,-1.955 8.84,-0.271 13.031,1.216 2.554,0.906 4.966,1.761 7.095,1.761 2.129,0 4.542,-0.855 7.096,-1.761 4.189,-1.486 8.936,-3.169 13.029,-1.217 8.897,4.265 10.261,12.244 7.762,17.856 z"
   inkscape:connector-curvature="0" />

	<path
   id="path1277"
   d="m 47.406708,58.157802 c 0.824,-0.005 1.491,-0.674 1.491,-1.5 0,-0.829 -0.671,-1.5 -1.5,-1.5 -0.151,0 -3.723,0.031 -6.193,2.735 -1.744,1.91 -2.474,4.591 -2.167,7.967 0.654,7.34 7.12,12.863 7.395,13.095 0.281,0.237 0.625,0.353 0.965,0.353 0.427,0 0.852,-0.182 1.148,-0.534 0.534,-0.634 0.453,-1.58 -0.181,-2.114 -0.058,-0.049 -5.793,-4.944 -6.339,-11.068 -0.226,-2.49 0.237,-4.392 1.375,-5.653 1.555,-1.725 3.964,-1.781 4.006,-1.781 z"
   inkscape:connector-curvature="0" />

</g>
    <g
       inkscape:transform-center-y="-3.9718672"
       transform="matrix(0.17967223,0.13331614,-0.13331614,0.17967223,204.96595,260.22502)"
       id="g1285"
       inkscape:transform-center-x="1.6486792">
	<path
   inkscape:connector-curvature="0"
   d="m 71.977,11.926 c -0.001,0 -0.001,-10e-4 -0.002,-10e-4 -5.213,-2.49 -10.819,-0.501 -15.324,1.096 -2.304,0.817 -4.48,1.589 -6.093,1.589 -1.613,0 -3.789,-0.771 -6.092,-1.589 -4.504,-1.598 -10.11,-3.585 -15.327,-1.096 -7.744,3.707 -13.397,12.378 -9.219,21.779 1.294,2.919 2.501,5.15 3.472,6.942 1.876,3.467 3.009,5.56 3.009,9.145 0,5.575 1.669,23.824 9.084,34.196 3.744,5.243 7.675,7.059 7.841,7.134 0.557,0.252 1.214,0.139 1.657,-0.286 0.442,-0.425 0.581,-1.077 0.351,-1.645 -0.054,-0.132 -5.32,-13.321 -2.18,-21.899 1.75,-4.755 5.138,-7.43 7.24,-7.208 0.109,0.013 0.221,0.013 0.33,0 2.12,-0.224 5.49,2.454 7.236,7.206 3.144,8.58 -2.129,21.768 -2.183,21.9 -0.23,0.568 -0.092,1.22 0.35,1.645 0.286,0.274 0.66,0.419 1.041,0.419 0.208,0 0.417,-0.043 0.615,-0.132 0.166,-0.075 4.104,-1.891 7.849,-7.134 7.41,-10.374 9.078,-28.622 9.078,-34.197 0,-3.584 1.132,-5.676 3.008,-9.143 0.97,-1.793 2.177,-4.024 3.47,-6.941 4.183,-9.396 -1.467,-18.069 -9.211,-21.78 z m 6.468,20.562 c -1.247,2.812 -2.374,4.895 -3.368,6.732 -1.956,3.615 -3.369,6.227 -3.369,10.571 0,6.697 -2.083,23.442 -8.519,32.453 -1.068,1.495 -2.15,2.67 -3.122,3.575 1.435,-4.995 3.046,-13.179 0.708,-19.563 -1.971,-5.365 -6.101,-9.186 -9.806,-9.186 -0.138,0 -0.275,0.005 -0.411,0.016 -3.807,-0.305 -8.174,3.605 -10.222,9.171 C 38,72.638 39.608,80.819 41.041,85.814 40.071,84.91 38.991,83.736 37.925,82.243 31.484,73.233 29.4,56.488 29.4,49.791 29.4,45.447 27.986,42.834 26.029,39.219 25.035,37.382 23.908,35.3 22.661,32.487 20.166,26.874 21.535,18.891 30.432,14.633 c 4.09,-1.955 8.84,-0.271 13.031,1.216 2.554,0.906 4.966,1.761 7.095,1.761 2.129,0 4.542,-0.855 7.096,-1.761 4.189,-1.486 8.936,-3.169 13.029,-1.217 8.897,4.265 10.261,12.244 7.762,17.856 z"
   id="path1281" />

	<path
   inkscape:connector-curvature="0"
   d="m 35.869,21.015 c 0.824,-0.005 1.491,-0.674 1.491,-1.5 0,-0.829 -0.671,-1.5 -1.5,-1.5 -0.151,0 -3.723,0.031 -6.193,2.735 -1.744,1.91 -2.474,4.591 -2.167,7.967 0.654,7.34 7.12,12.863 7.395,13.095 0.281,0.237 0.625,0.353 0.965,0.353 0.427,0 0.852,-0.182 1.148,-0.534 0.534,-0.634 0.453,-1.58 -0.181,-2.114 -0.058,-0.049 -5.793,-4.944 -6.339,-11.068 -0.226,-2.49 0.237,-4.392 1.375,-5.653 1.555,-1.725 3.964,-1.781 4.006,-1.781 z"
   id="path1283" />

</g>
    <g
       inkscape:transform-center-y="-1.9828521"
       transform="matrix(0.12451496,0.06291465,-0.06291465,0.12451496,161.91328,249.96328)"
       id="g1291"
       inkscape:transform-center-x="1.2506137">
	<path
   inkscape:connector-curvature="0"
   d="m 71.977,11.926 c -0.001,0 -0.001,-10e-4 -0.002,-10e-4 -5.213,-2.49 -10.819,-0.501 -15.324,1.096 -2.304,0.817 -4.48,1.589 -6.093,1.589 -1.613,0 -3.789,-0.771 -6.092,-1.589 -4.504,-1.598 -10.11,-3.585 -15.327,-1.096 -7.744,3.707 -13.397,12.378 -9.219,21.779 1.294,2.919 2.501,5.15 3.472,6.942 1.876,3.467 3.009,5.56 3.009,9.145 0,5.575 1.669,23.824 9.084,34.196 3.744,5.243 7.675,7.059 7.841,7.134 0.557,0.252 1.214,0.139 1.657,-0.286 0.442,-0.425 0.581,-1.077 0.351,-1.645 -0.054,-0.132 -5.32,-13.321 -2.18,-21.899 1.75,-4.755 5.138,-7.43 7.24,-7.208 0.109,0.013 0.221,0.013 0.33,0 2.12,-0.224 5.49,2.454 7.236,7.206 3.144,8.58 -2.129,21.768 -2.183,21.9 -0.23,0.568 -0.092,1.22 0.35,1.645 0.286,0.274 0.66,0.419 1.041,0.419 0.208,0 0.417,-0.043 0.615,-0.132 0.166,-0.075 4.104,-1.891 7.849,-7.134 7.41,-10.374 9.078,-28.622 9.078,-34.197 0,-3.584 1.132,-5.676 3.008,-9.143 0.97,-1.793 2.177,-4.024 3.47,-6.941 4.183,-9.396 -1.467,-18.069 -9.211,-21.78 z m 6.468,20.562 c -1.247,2.812 -2.374,4.895 -3.368,6.732 -1.956,3.615 -3.369,6.227 -3.369,10.571 0,6.697 -2.083,23.442 -8.519,32.453 -1.068,1.495 -2.15,2.67 -3.122,3.575 1.435,-4.995 3.046,-13.179 0.708,-19.563 -1.971,-5.365 -6.101,-9.186 -9.806,-9.186 -0.138,0 -0.275,0.005 -0.411,0.016 -3.807,-0.305 -8.174,3.605 -10.222,9.171 C 38,72.638 39.608,80.819 41.041,85.814 40.071,84.91 38.991,83.736 37.925,82.243 31.484,73.233 29.4,56.488 29.4,49.791 29.4,45.447 27.986,42.834 26.029,39.219 25.035,37.382 23.908,35.3 22.661,32.487 20.166,26.874 21.535,18.891 30.432,14.633 c 4.09,-1.955 8.84,-0.271 13.031,1.216 2.554,0.906 4.966,1.761 7.095,1.761 2.129,0 4.542,-0.855 7.096,-1.761 4.189,-1.486 8.936,-3.169 13.029,-1.217 8.897,4.265 10.261,12.244 7.762,17.856 z"
   id="path1287" />

	<path
   inkscape:connector-curvature="0"
   d="m 35.869,21.015 c 0.824,-0.005 1.491,-0.674 1.491,-1.5 0,-0.829 -0.671,-1.5 -1.5,-1.5 -0.151,0 -3.723,0.031 -6.193,2.735 -1.744,1.91 -2.474,4.591 -2.167,7.967 0.654,7.34 7.12,12.863 7.395,13.095 0.281,0.237 0.625,0.353 0.965,0.353 0.427,0 0.852,-0.182 1.148,-0.534 0.534,-0.634 0.453,-1.58 -0.181,-2.114 -0.058,-0.049 -5.793,-4.944 -6.339,-11.068 -0.226,-2.49 0.237,-4.392 1.375,-5.653 1.555,-1.725 3.964,-1.781 4.006,-1.781 z"
   id="path1289" />

</g>
    <g
       inkscape:transform-center-x="1.2709493"
       id="g1297"
       transform="matrix(0.12575149,-0.06040522,0.06040522,0.12575149,102.19388,277.13708)"
       inkscape:transform-center-y="3.2691596">
	<path
   id="path1293"
   d="m 71.977,11.926 c -0.001,0 -0.001,-10e-4 -0.002,-10e-4 -5.213,-2.49 -10.819,-0.501 -15.324,1.096 -2.304,0.817 -4.48,1.589 -6.093,1.589 -1.613,0 -3.789,-0.771 -6.092,-1.589 -4.504,-1.598 -10.11,-3.585 -15.327,-1.096 -7.744,3.707 -13.397,12.378 -9.219,21.779 1.294,2.919 2.501,5.15 3.472,6.942 1.876,3.467 3.009,5.56 3.009,9.145 0,5.575 1.669,23.824 9.084,34.196 3.744,5.243 7.675,7.059 7.841,7.134 0.557,0.252 1.214,0.139 1.657,-0.286 0.442,-0.425 0.581,-1.077 0.351,-1.645 -0.054,-0.132 -5.32,-13.321 -2.18,-21.899 1.75,-4.755 5.138,-7.43 7.24,-7.208 0.109,0.013 0.221,0.013 0.33,0 2.12,-0.224 5.49,2.454 7.236,7.206 3.144,8.58 -2.129,21.768 -2.183,21.9 -0.23,0.568 -0.092,1.22 0.35,1.645 0.286,0.274 0.66,0.419 1.041,0.419 0.208,0 0.417,-0.043 0.615,-0.132 0.166,-0.075 4.104,-1.891 7.849,-7.134 7.41,-10.374 9.078,-28.622 9.078,-34.197 0,-3.584 1.132,-5.676 3.008,-9.143 0.97,-1.793 2.177,-4.024 3.47,-6.941 4.183,-9.396 -1.467,-18.069 -9.211,-21.78 z m 6.468,20.562 c -1.247,2.812 -2.374,4.895 -3.368,6.732 -1.956,3.615 -3.369,6.227 -3.369,10.571 0,6.697 -2.083,23.442 -8.519,32.453 -1.068,1.495 -2.15,2.67 -3.122,3.575 1.435,-4.995 3.046,-13.179 0.708,-19.563 -1.971,-5.365 -6.101,-9.186 -9.806,-9.186 -0.138,0 -0.275,0.005 -0.411,0.016 -3.807,-0.305 -8.174,3.605 -10.222,9.171 C 38,72.638 39.608,80.819 41.041,85.814 40.071,84.91 38.991,83.736 37.925,82.243 31.484,73.233 29.4,56.488 29.4,49.791 29.4,45.447 27.986,42.834 26.029,39.219 25.035,37.382 23.908,35.3 22.661,32.487 20.166,26.874 21.535,18.891 30.432,14.633 c 4.09,-1.955 8.84,-0.271 13.031,1.216 2.554,0.906 4.966,1.761 7.095,1.761 2.129,0 4.542,-0.855 7.096,-1.761 4.189,-1.486 8.936,-3.169 13.029,-1.217 8.897,4.265 10.261,12.244 7.762,17.856 z"
   inkscape:connector-curvature="0" />

	<path
   id="path1295"
   d="m 35.869,21.015 c 0.824,-0.005 1.491,-0.674 1.491,-1.5 0,-0.829 -0.671,-1.5 -1.5,-1.5 -0.151,0 -3.723,0.031 -6.193,2.735 -1.744,1.91 -2.474,4.591 -2.167,7.967 0.654,7.34 7.12,12.863 7.395,13.095 0.281,0.237 0.625,0.353 0.965,0.353 0.427,0 0.852,-0.182 1.148,-0.534 0.534,-0.634 0.453,-1.58 -0.181,-2.114 -0.058,-0.049 -5.793,-4.944 -6.339,-11.068 -0.226,-2.49 0.237,-4.392 1.375,-5.653 1.555,-1.725 3.964,-1.781 4.006,-1.781 z"
   inkscape:connector-curvature="0" />

</g>
  </g>
</svg>
