<?xml version="1.0" encoding="UTF-8" standalone="no"?>
<!-- Generator: Adobe Illustrator 19.0.0, SVG Export Plug-In . SVG Version: 6.00 Build 0)  -->

<svg
   xmlns:dc="http://purl.org/dc/elements/1.1/"
   xmlns:cc="http://creativecommons.org/ns#"
   xmlns:rdf="http://www.w3.org/1999/02/22-rdf-syntax-ns#"
   xmlns:svg="http://www.w3.org/2000/svg"
   xmlns="http://www.w3.org/2000/svg"
   xmlns:sodipodi="http://sodipodi.sourceforge.net/DTD/sodipodi-0.dtd"
   xmlns:inkscape="http://www.inkscape.org/namespaces/inkscape"
   version="1.1"
   id="Capa_1"
   x="0px"
   y="0px"
   viewBox="0 0 39.712192 20.474578"
   xml:space="preserve"
   sodipodi:docname="tooth.svg"
   width="39.712193"
   height="20.474579"
   inkscape:version="0.92.4 (5da689c313, 2019-01-14)"><metadata
   id="metadata1569"><rdf:RDF><cc:Work
       rdf:about=""><dc:format>image/svg+xml</dc:format><dc:type
         rdf:resource="http://purl.org/dc/dcmitype/StillImage" /><dc:title></dc:title></cc:Work></rdf:RDF></metadata><defs
   id="defs1567" /><sodipodi:namedview
   pagecolor="#ffffff"
   bordercolor="#666666"
   borderopacity="1"
   objecttolerance="10"
   gridtolerance="10"
   guidetolerance="10"
   inkscape:pageopacity="0"
   inkscape:pageshadow="2"
   inkscape:window-width="1822"
   inkscape:window-height="1051"
   id="namedview1565"
   showgrid="false"
   inkscape:zoom="3.8064516"
   inkscape:cx="42.262473"
   inkscape:cy="8.5319888"
   inkscape:window-x="89"
   inkscape:window-y="-9"
   inkscape:window-maximized="1"
   inkscape:current-layer="Capa_1" />
<g
   id="g1508"
   transform="matrix(0.04063509,0,0,0.04063509,0,-1.4628632)">
	<g
   id="g1506">
		<path
   d="M 112,158.68 V 156 H 96 v 2.68 c 0,4.584 0.12,9.168 0.352,13.728 l 15.984,-0.816 C 112.12,167.296 112,163 112,158.68 Z"
   id="path1504"
   inkscape:connector-curvature="0" />
	</g>
</g>
<g
   id="g1514"
   transform="matrix(0.04063509,0,0,0.04063509,0,-1.4628632)">
	<g
   id="g1512">
		<path
   d="m 113.608,187.088 -15.896,1.816 c 4.576,40.296 18.624,79.68 40.616,113.88 l 13.456,-8.656 C 131.112,261.976 117.92,224.96 113.608,187.088 Z"
   id="path1510"
   inkscape:connector-curvature="0" />
	</g>
</g>
<g
   id="g1520"
   transform="matrix(0.04063509,0,0,0.04063509,0,-1.4628632)">
	<g
   id="g1518">
		<path
   d="M 294.888,77.696 C 281.032,87.056 264.816,92 248,92 231.184,92 214.976,87.056 201.12,77.704 l -8.952,13.264 C 208.68,102.112 227.984,108 248,108 c 20.016,0 39.32,-5.888 55.84,-17.04 z"
   id="path1516"
   inkscape:connector-curvature="0" />
	</g>
</g>
<g
   id="g1526"
   transform="matrix(0.04063509,0,0,0.04063509,0,-1.4628632)">
	<g
   id="g1524">
		<path
   d="M 72,308 H 56 c 0,30.872 -25.128,56 -56,56 v 16 c 30.872,0 56,25.128 56,56 h 16 c 0,-30.872 25.128,-56 56,-56 V 364 C 97.128,364 72,338.872 72,308 Z m -8,95.16 C 57.12,389.8 46.2,378.88 32.84,372 46.2,365.12 57.12,354.2 64,340.84 70.88,354.2 81.8,365.12 95.16,372 81.8,378.88 70.88,389.8 64,403.16 Z"
   id="path1522"
   inkscape:connector-curvature="0" />
	</g>
</g>
<g
   id="g1532"
   transform="matrix(0.04063509,0,0,0.04063509,0,-1.4628632)">
	<g
   id="g1530">
		<path
   d="M 440,100 H 424.68 C 409.528,62.312 372.44,36 330.416,36 c -19.84,0 -38.496,5.368 -53.952,15.512 -17.112,11.264 -39.808,11.264 -56.928,0 C 204.088,41.368 185.432,36 165.584,36 109.568,36 64,81.568 64,137.584 v 21.096 c 0,57.36 16.4,113.168 47.416,161.416 16.688,25.96 28.944,54.304 36.432,84.24 l 8.704,34.832 c 3.056,12.272 14.024,20.832 26.664,20.832 13.72,0 25.16,-9.848 27.184,-23.416 L 228.344,316.92 c 1.48,-9.8 9.744,-16.92 19.656,-16.92 9.912,0 18.176,7.12 19.648,16.92 l 17.944,119.664 c 2.032,13.568 13.472,23.416 27.192,23.416 12.64,0 23.608,-8.56 26.664,-20.832 l 8.712,-34.832 c 7.488,-29.944 19.752,-58.288 36.44,-84.24 18.232,-28.368 31.568,-60.048 39.368,-92.928 -0.008,0.28 0.032,0.552 0.032,0.832 h 16 c 0,-30.872 25.128,-56 56,-56 v -16 c -30.872,0 -56,-25.128 -56,-56 z m -68.864,211.44 c -17.64,27.44 -30.584,57.392 -38.496,89.024 l -8.72,34.832 c -1.272,5.128 -5.856,8.704 -11.136,8.704 -5.736,0 -10.512,-4.12 -11.36,-9.792 L 283.48,314.544 C 280.824,296.84 265.896,284 248,284 c -17.896,0 -32.824,12.84 -35.48,30.544 l -17.944,119.664 c -0.84,5.672 -5.624,9.792 -11.36,9.792 -5.28,0 -9.864,-3.576 -11.152,-8.704 l -8.712,-34.832 C 155.448,368.824 142.496,338.872 124.856,311.44 95.512,265.784 80,212.96 80,158.68 V 137.584 C 80,90.392 118.392,52 165.584,52 c 16.712,0 32.328,4.456 45.16,12.888 C 221.952,72.256 234.496,76 248,76 261.504,76 274.048,72.256 285.248,64.888 298.088,56.456 313.704,52 330.416,52 c 42.208,0 78.624,31.448 84.624,72.512 l 0.336,5.208 C 405.456,145.472 387.952,156 368,156 v 16 c 18.784,0 35.4,9.328 45.56,23.56 -5.4,41.024 -20.056,81.08 -42.424,115.88 z M 432,195.16 C 425.12,181.8 414.2,170.88 400.84,164 c 13.36,-6.88 24.28,-17.8 31.16,-31.16 6.88,13.36 17.8,24.28 31.16,31.16 -13.36,6.88 -24.28,17.8 -31.16,31.16 z"
   id="path1528"
   inkscape:connector-curvature="0" />
	</g>
</g>
<g
   id="g1534"
   transform="translate(0,-519.38983)">
</g>
<g
   id="g1536"
   transform="translate(0,-519.38983)">
</g>
<g
   id="g1538"
   transform="translate(0,-519.38983)">
</g>
<g
   id="g1540"
   transform="translate(0,-519.38983)">
</g>
<g
   id="g1542"
   transform="translate(0,-519.38983)">
</g>
<g
   id="g1544"
   transform="translate(0,-519.38983)">
</g>
<g
   id="g1546"
   transform="translate(0,-519.38983)">
</g>
<g
   id="g1548"
   transform="translate(0,-519.38983)">
</g>
<g
   id="g1550"
   transform="translate(0,-519.38983)">
</g>
<g
   id="g1552"
   transform="translate(0,-519.38983)">
</g>
<g
   id="g1554"
   transform="translate(0,-519.38983)">
</g>
<g
   id="g1556"
   transform="translate(0,-519.38983)">
</g>
<g
   id="g1558"
   transform="translate(0,-519.38983)">
</g>
<g
   id="g1560"
   transform="translate(0,-519.38983)">
</g>
<g
   id="g1562"
   transform="translate(0,-519.38983)">
</g>
<g
   transform="matrix(0.04063509,0,0,0.04063509,0,-1.4628632)"
   id="g5290">
	<g
   id="g5288">
		<path
   inkscape:connector-curvature="0"
   id="path5286"
   d="M 112,158.68 V 156 H 96 v 2.68 c 0,4.584 0.12,9.168 0.352,13.728 l 15.984,-0.816 C 112.12,167.296 112,163 112,158.68 Z" />
	</g>
</g><g
   transform="matrix(0.04063509,0,0,0.04063509,0,-1.4628632)"
   id="g5296">
	<g
   id="g5294">
		<path
   inkscape:connector-curvature="0"
   id="path5292"
   d="m 113.608,187.088 -15.896,1.816 c 4.576,40.296 18.624,79.68 40.616,113.88 l 13.456,-8.656 C 131.112,261.976 117.92,224.96 113.608,187.088 Z" />
	</g>
</g><g
   transform="matrix(0.04063509,0,0,0.04063509,0,-1.4628632)"
   id="g5302">
	<g
   id="g5300">
		<path
   inkscape:connector-curvature="0"
   id="path5298"
   d="M 294.888,77.696 C 281.032,87.056 264.816,92 248,92 231.184,92 214.976,87.056 201.12,77.704 l -8.952,13.264 C 208.68,102.112 227.984,108 248,108 c 20.016,0 39.32,-5.888 55.84,-17.04 z" />
	</g>
</g><g
   transform="matrix(0.04063509,0,0,0.04063509,0,-1.4628632)"
   id="g5308">
	<g
   id="g5306">
		<path
   inkscape:connector-curvature="0"
   id="path5304"
   d="M 72,308 H 56 c 0,30.872 -25.128,56 -56,56 v 16 c 30.872,0 56,25.128 56,56 h 16 c 0,-30.872 25.128,-56 56,-56 V 364 C 97.128,364 72,338.872 72,308 Z m -8,95.16 C 57.12,389.8 46.2,378.88 32.84,372 46.2,365.12 57.12,354.2 64,340.84 70.88,354.2 81.8,365.12 95.16,372 81.8,378.88 70.88,389.8 64,403.16 Z" />
	</g>
</g><g
   transform="matrix(0.04063509,0,0,0.04063509,0,-1.4628632)"
   id="g5314">
	<g
   id="g5312">
		<path
   inkscape:connector-curvature="0"
   id="path5310"
   d="M 440,100 H 424.68 C 409.528,62.312 372.44,36 330.416,36 c -19.84,0 -38.496,5.368 -53.952,15.512 -17.112,11.264 -39.808,11.264 -56.928,0 C 204.088,41.368 185.432,36 165.584,36 109.568,36 64,81.568 64,137.584 v 21.096 c 0,57.36 16.4,113.168 47.416,161.416 16.688,25.96 28.944,54.304 36.432,84.24 l 8.704,34.832 c 3.056,12.272 14.024,20.832 26.664,20.832 13.72,0 25.16,-9.848 27.184,-23.416 L 228.344,316.92 c 1.48,-9.8 9.744,-16.92 19.656,-16.92 9.912,0 18.176,7.12 19.648,16.92 l 17.944,119.664 c 2.032,13.568 13.472,23.416 27.192,23.416 12.64,0 23.608,-8.56 26.664,-20.832 l 8.712,-34.832 c 7.488,-29.944 19.752,-58.288 36.44,-84.24 18.232,-28.368 31.568,-60.048 39.368,-92.928 -0.008,0.28 0.032,0.552 0.032,0.832 h 16 c 0,-30.872 25.128,-56 56,-56 v -16 c -30.872,0 -56,-25.128 -56,-56 z m -68.864,211.44 c -17.64,27.44 -30.584,57.392 -38.496,89.024 l -8.72,34.832 c -1.272,5.128 -5.856,8.704 -11.136,8.704 -5.736,0 -10.512,-4.12 -11.36,-9.792 L 283.48,314.544 C 280.824,296.84 265.896,284 248,284 c -17.896,0 -32.824,12.84 -35.48,30.544 l -17.944,119.664 c -0.84,5.672 -5.624,9.792 -11.36,9.792 -5.28,0 -9.864,-3.576 -11.152,-8.704 l -8.712,-34.832 C 155.448,368.824 142.496,338.872 124.856,311.44 95.512,265.784 80,212.96 80,158.68 V 137.584 C 80,90.392 118.392,52 165.584,52 c 16.712,0 32.328,4.456 45.16,12.888 C 221.952,72.256 234.496,76 248,76 261.504,76 274.048,72.256 285.248,64.888 298.088,56.456 313.704,52 330.416,52 c 42.208,0 78.624,31.448 84.624,72.512 l 0.336,5.208 C 405.456,145.472 387.952,156 368,156 v 16 c 18.784,0 35.4,9.328 45.56,23.56 -5.4,41.024 -20.056,81.08 -42.424,115.88 z M 432,195.16 C 425.12,181.8 414.2,170.88 400.84,164 c 13.36,-6.88 24.28,-17.8 31.16,-31.16 6.88,13.36 17.8,24.28 31.16,31.16 -13.36,6.88 -24.28,17.8 -31.16,31.16 z" />
	</g>
</g><g
   transform="matrix(0.04063509,0,0,0.04063509,0,-1.4628632)"
   id="g5320">
	<g
   id="g5318">
		<path
   inkscape:connector-curvature="0"
   id="path5316"
   d="M 112,158.68 V 156 H 96 v 2.68 c 0,4.584 0.12,9.168 0.352,13.728 l 15.984,-0.816 C 112.12,167.296 112,163 112,158.68 Z" />
	</g>
</g><g
   transform="matrix(0.04063509,0,0,0.04063509,0,-1.4628632)"
   id="g5326">
	<g
   id="g5324">
		<path
   inkscape:connector-curvature="0"
   id="path5322"
   d="m 113.608,187.088 -15.896,1.816 c 4.576,40.296 18.624,79.68 40.616,113.88 l 13.456,-8.656 C 131.112,261.976 117.92,224.96 113.608,187.088 Z" />
	</g>
</g><g
   transform="matrix(0.04063509,0,0,0.04063509,0,-1.4628632)"
   id="g5332">
	<g
   id="g5330">
		<path
   inkscape:connector-curvature="0"
   id="path5328"
   d="M 294.888,77.696 C 281.032,87.056 264.816,92 248,92 231.184,92 214.976,87.056 201.12,77.704 l -8.952,13.264 C 208.68,102.112 227.984,108 248,108 c 20.016,0 39.32,-5.888 55.84,-17.04 z" />
	</g>
</g><g
   transform="matrix(0.04063509,0,0,0.04063509,0,-1.4628632)"
   id="g5338">
	<g
   id="g5336">
		<path
   inkscape:connector-curvature="0"
   id="path5334"
   d="M 72,308 H 56 c 0,30.872 -25.128,56 -56,56 v 16 c 30.872,0 56,25.128 56,56 h 16 c 0,-30.872 25.128,-56 56,-56 V 364 C 97.128,364 72,338.872 72,308 Z m -8,95.16 C 57.12,389.8 46.2,378.88 32.84,372 46.2,365.12 57.12,354.2 64,340.84 70.88,354.2 81.8,365.12 95.16,372 81.8,378.88 70.88,389.8 64,403.16 Z" />
	</g>
</g><g
   transform="matrix(0.04063509,0,0,0.04063509,0,-1.4628632)"
   id="g5344">
	<g
   id="g5342">
		<path
   inkscape:connector-curvature="0"
   id="path5340"
   d="M 440,100 H 424.68 C 409.528,62.312 372.44,36 330.416,36 c -19.84,0 -38.496,5.368 -53.952,15.512 -17.112,11.264 -39.808,11.264 -56.928,0 C 204.088,41.368 185.432,36 165.584,36 109.568,36 64,81.568 64,137.584 v 21.096 c 0,57.36 16.4,113.168 47.416,161.416 16.688,25.96 28.944,54.304 36.432,84.24 l 8.704,34.832 c 3.056,12.272 14.024,20.832 26.664,20.832 13.72,0 25.16,-9.848 27.184,-23.416 L 228.344,316.92 c 1.48,-9.8 9.744,-16.92 19.656,-16.92 9.912,0 18.176,7.12 19.648,16.92 l 17.944,119.664 c 2.032,13.568 13.472,23.416 27.192,23.416 12.64,0 23.608,-8.56 26.664,-20.832 l 8.712,-34.832 c 7.488,-29.944 19.752,-58.288 36.44,-84.24 18.232,-28.368 31.568,-60.048 39.368,-92.928 -0.008,0.28 0.032,0.552 0.032,0.832 h 16 c 0,-30.872 25.128,-56 56,-56 v -16 c -30.872,0 -56,-25.128 -56,-56 z m -68.864,211.44 c -17.64,27.44 -30.584,57.392 -38.496,89.024 l -8.72,34.832 c -1.272,5.128 -5.856,8.704 -11.136,8.704 -5.736,0 -10.512,-4.12 -11.36,-9.792 L 283.48,314.544 C 280.824,296.84 265.896,284 248,284 c -17.896,0 -32.824,12.84 -35.48,30.544 l -17.944,119.664 c -0.84,5.672 -5.624,9.792 -11.36,9.792 -5.28,0 -9.864,-3.576 -11.152,-8.704 l -8.712,-34.832 C 155.448,368.824 142.496,338.872 124.856,311.44 95.512,265.784 80,212.96 80,158.68 V 137.584 C 80,90.392 118.392,52 165.584,52 c 16.712,0 32.328,4.456 45.16,12.888 C 221.952,72.256 234.496,76 248,76 261.504,76 274.048,72.256 285.248,64.888 298.088,56.456 313.704,52 330.416,52 c 42.208,0 78.624,31.448 84.624,72.512 l 0.336,5.208 C 405.456,145.472 387.952,156 368,156 v 16 c 18.784,0 35.4,9.328 45.56,23.56 -5.4,41.024 -20.056,81.08 -42.424,115.88 z M 432,195.16 C 425.12,181.8 414.2,170.88 400.84,164 c 13.36,-6.88 24.28,-17.8 31.16,-31.16 6.88,13.36 17.8,24.28 31.16,31.16 -13.36,6.88 -24.28,17.8 -31.16,31.16 z" />
	</g>
</g><g
   id="g5350"
   transform="matrix(0.04063509,0,0,0.04063509,0,-1.4628632)">
	<g
   id="g5348">
		<path
   d="M 112,158.68 V 156 H 96 v 2.68 c 0,4.584 0.12,9.168 0.352,13.728 l 15.984,-0.816 C 112.12,167.296 112,163 112,158.68 Z"
   id="path5346"
   inkscape:connector-curvature="0" />
	</g>
</g><g
   id="g5356"
   transform="matrix(0.04063509,0,0,0.04063509,0,-1.4628632)">
	<g
   id="g5354">
		<path
   d="m 113.608,187.088 -15.896,1.816 c 4.576,40.296 18.624,79.68 40.616,113.88 l 13.456,-8.656 C 131.112,261.976 117.92,224.96 113.608,187.088 Z"
   id="path5352"
   inkscape:connector-curvature="0" />
	</g>
</g><g
   id="g5362"
   transform="matrix(0.04063509,0,0,0.04063509,0,-1.4628632)">
	<g
   id="g5360">
		<path
   d="M 294.888,77.696 C 281.032,87.056 264.816,92 248,92 231.184,92 214.976,87.056 201.12,77.704 l -8.952,13.264 C 208.68,102.112 227.984,108 248,108 c 20.016,0 39.32,-5.888 55.84,-17.04 z"
   id="path5358"
   inkscape:connector-curvature="0" />
	</g>
</g><g
   id="g5368"
   transform="matrix(0.04063509,0,0,0.04063509,0,-1.4628632)">
	<g
   id="g5366">
		<path
   d="M 72,308 H 56 c 0,30.872 -25.128,56 -56,56 v 16 c 30.872,0 56,25.128 56,56 h 16 c 0,-30.872 25.128,-56 56,-56 V 364 C 97.128,364 72,338.872 72,308 Z m -8,95.16 C 57.12,389.8 46.2,378.88 32.84,372 46.2,365.12 57.12,354.2 64,340.84 70.88,354.2 81.8,365.12 95.16,372 81.8,378.88 70.88,389.8 64,403.16 Z"
   id="path5364"
   inkscape:connector-curvature="0" />
	</g>
</g><g
   id="g5374"
   transform="matrix(0.04063509,0,0,0.04063509,0,-1.4628632)">
	<g
   id="g5372">
		<path
   d="M 440,100 H 424.68 C 409.528,62.312 372.44,36 330.416,36 c -19.84,0 -38.496,5.368 -53.952,15.512 -17.112,11.264 -39.808,11.264 -56.928,0 C 204.088,41.368 185.432,36 165.584,36 109.568,36 64,81.568 64,137.584 v 21.096 c 0,57.36 16.4,113.168 47.416,161.416 16.688,25.96 28.944,54.304 36.432,84.24 l 8.704,34.832 c 3.056,12.272 14.024,20.832 26.664,20.832 13.72,0 25.16,-9.848 27.184,-23.416 L 228.344,316.92 c 1.48,-9.8 9.744,-16.92 19.656,-16.92 9.912,0 18.176,7.12 19.648,16.92 l 17.944,119.664 c 2.032,13.568 13.472,23.416 27.192,23.416 12.64,0 23.608,-8.56 26.664,-20.832 l 8.712,-34.832 c 7.488,-29.944 19.752,-58.288 36.44,-84.24 18.232,-28.368 31.568,-60.048 39.368,-92.928 -0.008,0.28 0.032,0.552 0.032,0.832 h 16 c 0,-30.872 25.128,-56 56,-56 v -16 c -30.872,0 -56,-25.128 -56,-56 z m -68.864,211.44 c -17.64,27.44 -30.584,57.392 -38.496,89.024 l -8.72,34.832 c -1.272,5.128 -5.856,8.704 -11.136,8.704 -5.736,0 -10.512,-4.12 -11.36,-9.792 L 283.48,314.544 C 280.824,296.84 265.896,284 248,284 c -17.896,0 -32.824,12.84 -35.48,30.544 l -17.944,119.664 c -0.84,5.672 -5.624,9.792 -11.36,9.792 -5.28,0 -9.864,-3.576 -11.152,-8.704 l -8.712,-34.832 C 155.448,368.824 142.496,338.872 124.856,311.44 95.512,265.784 80,212.96 80,158.68 V 137.584 C 80,90.392 118.392,52 165.584,52 c 16.712,0 32.328,4.456 45.16,12.888 C 221.952,72.256 234.496,76 248,76 261.504,76 274.048,72.256 285.248,64.888 298.088,56.456 313.704,52 330.416,52 c 42.208,0 78.624,31.448 84.624,72.512 l 0.336,5.208 C 405.456,145.472 387.952,156 368,156 v 16 c 18.784,0 35.4,9.328 45.56,23.56 -5.4,41.024 -20.056,81.08 -42.424,115.88 z M 432,195.16 C 425.12,181.8 414.2,170.88 400.84,164 c 13.36,-6.88 24.28,-17.8 31.16,-31.16 6.88,13.36 17.8,24.28 31.16,31.16 -13.36,6.88 -24.28,17.8 -31.16,31.16 z"
   id="path5370"
   inkscape:connector-curvature="0" />
	</g>
</g><g
   transform="matrix(0.04063509,0,0,0.04063509,19.557187,1.7824368)"
   id="g5380">
	<g
   id="g5378">
		<path
   inkscape:connector-curvature="0"
   id="path5376"
   d="M 112,158.68 V 156 H 96 v 2.68 c 0,4.584 0.12,9.168 0.352,13.728 l 15.984,-0.816 C 112.12,167.296 112,163 112,158.68 Z" />
	</g>
</g><g
   transform="matrix(0.04063509,0,0,0.04063509,19.557187,1.7824368)"
   id="g5386">
	<g
   id="g5384">
		<path
   inkscape:connector-curvature="0"
   id="path5382"
   d="m 113.608,187.088 -15.896,1.816 c 4.576,40.296 18.624,79.68 40.616,113.88 l 13.456,-8.656 C 131.112,261.976 117.92,224.96 113.608,187.088 Z" />
	</g>
</g><g
   transform="matrix(0.04063509,0,0,0.04063509,19.557187,1.7824368)"
   id="g5392">
	<g
   id="g5390">
		<path
   inkscape:connector-curvature="0"
   id="path5388"
   d="M 294.888,77.696 C 281.032,87.056 264.816,92 248,92 231.184,92 214.976,87.056 201.12,77.704 l -8.952,13.264 C 208.68,102.112 227.984,108 248,108 c 20.016,0 39.32,-5.888 55.84,-17.04 z" />
	</g>
</g><g
   transform="matrix(0.04063509,0,0,0.04063509,19.557187,1.7824368)"
   id="g5398">
	<g
   id="g5396">
		<path
   inkscape:connector-curvature="0"
   id="path5394"
   d="M 72,308 H 56 c 0,30.872 -25.128,56 -56,56 v 16 c 30.872,0 56,25.128 56,56 h 16 c 0,-30.872 25.128,-56 56,-56 V 364 C 97.128,364 72,338.872 72,308 Z m -8,95.16 C 57.12,389.8 46.2,378.88 32.84,372 46.2,365.12 57.12,354.2 64,340.84 70.88,354.2 81.8,365.12 95.16,372 81.8,378.88 70.88,389.8 64,403.16 Z" />
	</g>
</g><g
   transform="matrix(0.04063509,0,0,0.04063509,19.557187,1.7824368)"
   id="g5404">
	<g
   id="g5402">
		<path
   inkscape:connector-curvature="0"
   id="path5400"
   d="M 440,100 H 424.68 C 409.528,62.312 372.44,36 330.416,36 c -19.84,0 -38.496,5.368 -53.952,15.512 -17.112,11.264 -39.808,11.264 -56.928,0 C 204.088,41.368 185.432,36 165.584,36 109.568,36 64,81.568 64,137.584 v 21.096 c 0,57.36 16.4,113.168 47.416,161.416 16.688,25.96 28.944,54.304 36.432,84.24 l 8.704,34.832 c 3.056,12.272 14.024,20.832 26.664,20.832 13.72,0 25.16,-9.848 27.184,-23.416 L 228.344,316.92 c 1.48,-9.8 9.744,-16.92 19.656,-16.92 9.912,0 18.176,7.12 19.648,16.92 l 17.944,119.664 c 2.032,13.568 13.472,23.416 27.192,23.416 12.64,0 23.608,-8.56 26.664,-20.832 l 8.712,-34.832 c 7.488,-29.944 19.752,-58.288 36.44,-84.24 18.232,-28.368 31.568,-60.048 39.368,-92.928 -0.008,0.28 0.032,0.552 0.032,0.832 h 16 c 0,-30.872 25.128,-56 56,-56 v -16 c -30.872,0 -56,-25.128 -56,-56 z m -68.864,211.44 c -17.64,27.44 -30.584,57.392 -38.496,89.024 l -8.72,34.832 c -1.272,5.128 -5.856,8.704 -11.136,8.704 -5.736,0 -10.512,-4.12 -11.36,-9.792 L 283.48,314.544 C 280.824,296.84 265.896,284 248,284 c -17.896,0 -32.824,12.84 -35.48,30.544 l -17.944,119.664 c -0.84,5.672 -5.624,9.792 -11.36,9.792 -5.28,0 -9.864,-3.576 -11.152,-8.704 l -8.712,-34.832 C 155.448,368.824 142.496,338.872 124.856,311.44 95.512,265.784 80,212.96 80,158.68 V 137.584 C 80,90.392 118.392,52 165.584,52 c 16.712,0 32.328,4.456 45.16,12.888 C 221.952,72.256 234.496,76 248,76 261.504,76 274.048,72.256 285.248,64.888 298.088,56.456 313.704,52 330.416,52 c 42.208,0 78.624,31.448 84.624,72.512 l 0.336,5.208 C 405.456,145.472 387.952,156 368,156 v 16 c 18.784,0 35.4,9.328 45.56,23.56 -5.4,41.024 -20.056,81.08 -42.424,115.88 z M 432,195.16 C 425.12,181.8 414.2,170.88 400.84,164 c 13.36,-6.88 24.28,-17.8 31.16,-31.16 6.88,13.36 17.8,24.28 31.16,31.16 -13.36,6.88 -24.28,17.8 -31.16,31.16 z" />
	</g>
</g><g
   id="g5410"
   transform="matrix(0.04063509,0,0,0.04063509,19.557187,1.7824368)">
	<g
   id="g5408">
		<path
   d="M 112,158.68 V 156 H 96 v 2.68 c 0,4.584 0.12,9.168 0.352,13.728 l 15.984,-0.816 C 112.12,167.296 112,163 112,158.68 Z"
   id="path5406"
   inkscape:connector-curvature="0" />
	</g>
</g><g
   id="g5416"
   transform="matrix(0.04063509,0,0,0.04063509,19.557187,1.7824368)">
	<g
   id="g5414">
		<path
   d="m 113.608,187.088 -15.896,1.816 c 4.576,40.296 18.624,79.68 40.616,113.88 l 13.456,-8.656 C 131.112,261.976 117.92,224.96 113.608,187.088 Z"
   id="path5412"
   inkscape:connector-curvature="0" />
	</g>
</g><g
   id="g5422"
   transform="matrix(0.04063509,0,0,0.04063509,19.557187,1.7824368)">
	<g
   id="g5420">
		<path
   d="M 294.888,77.696 C 281.032,87.056 264.816,92 248,92 231.184,92 214.976,87.056 201.12,77.704 l -8.952,13.264 C 208.68,102.112 227.984,108 248,108 c 20.016,0 39.32,-5.888 55.84,-17.04 z"
   id="path5418"
   inkscape:connector-curvature="0" />
	</g>
</g><g
   id="g5428"
   transform="matrix(0.04063509,0,0,0.04063509,19.557187,1.7824368)">
	<g
   id="g5426">
		<path
   d="M 72,308 H 56 c 0,30.872 -25.128,56 -56,56 v 16 c 30.872,0 56,25.128 56,56 h 16 c 0,-30.872 25.128,-56 56,-56 V 364 C 97.128,364 72,338.872 72,308 Z m -8,95.16 C 57.12,389.8 46.2,378.88 32.84,372 46.2,365.12 57.12,354.2 64,340.84 70.88,354.2 81.8,365.12 95.16,372 81.8,378.88 70.88,389.8 64,403.16 Z"
   id="path5424"
   inkscape:connector-curvature="0" />
	</g>
</g><g
   id="g5434"
   transform="matrix(0.04063509,0,0,0.04063509,19.557187,1.7824368)">
	<g
   id="g5432">
		<path
   d="M 440,100 H 424.68 C 409.528,62.312 372.44,36 330.416,36 c -19.84,0 -38.496,5.368 -53.952,15.512 -17.112,11.264 -39.808,11.264 -56.928,0 C 204.088,41.368 185.432,36 165.584,36 109.568,36 64,81.568 64,137.584 v 21.096 c 0,57.36 16.4,113.168 47.416,161.416 16.688,25.96 28.944,54.304 36.432,84.24 l 8.704,34.832 c 3.056,12.272 14.024,20.832 26.664,20.832 13.72,0 25.16,-9.848 27.184,-23.416 L 228.344,316.92 c 1.48,-9.8 9.744,-16.92 19.656,-16.92 9.912,0 18.176,7.12 19.648,16.92 l 17.944,119.664 c 2.032,13.568 13.472,23.416 27.192,23.416 12.64,0 23.608,-8.56 26.664,-20.832 l 8.712,-34.832 c 7.488,-29.944 19.752,-58.288 36.44,-84.24 18.232,-28.368 31.568,-60.048 39.368,-92.928 -0.008,0.28 0.032,0.552 0.032,0.832 h 16 c 0,-30.872 25.128,-56 56,-56 v -16 c -30.872,0 -56,-25.128 -56,-56 z m -68.864,211.44 c -17.64,27.44 -30.584,57.392 -38.496,89.024 l -8.72,34.832 c -1.272,5.128 -5.856,8.704 -11.136,8.704 -5.736,0 -10.512,-4.12 -11.36,-9.792 L 283.48,314.544 C 280.824,296.84 265.896,284 248,284 c -17.896,0 -32.824,12.84 -35.48,30.544 l -17.944,119.664 c -0.84,5.672 -5.624,9.792 -11.36,9.792 -5.28,0 -9.864,-3.576 -11.152,-8.704 l -8.712,-34.832 C 155.448,368.824 142.496,338.872 124.856,311.44 95.512,265.784 80,212.96 80,158.68 V 137.584 C 80,90.392 118.392,52 165.584,52 c 16.712,0 32.328,4.456 45.16,12.888 C 221.952,72.256 234.496,76 248,76 261.504,76 274.048,72.256 285.248,64.888 298.088,56.456 313.704,52 330.416,52 c 42.208,0 78.624,31.448 84.624,72.512 l 0.336,5.208 C 405.456,145.472 387.952,156 368,156 v 16 c 18.784,0 35.4,9.328 45.56,23.56 -5.4,41.024 -20.056,81.08 -42.424,115.88 z M 432,195.16 C 425.12,181.8 414.2,170.88 400.84,164 c 13.36,-6.88 24.28,-17.8 31.16,-31.16 6.88,13.36 17.8,24.28 31.16,31.16 -13.36,6.88 -24.28,17.8 -31.16,31.16 z"
   id="path5430"
   inkscape:connector-curvature="0" />
	</g>
</g><g
   id="g5440"
   transform="matrix(0.04063509,0,0,0.04063509,19.557187,1.7824368)">
	<g
   id="g5438">
		<path
   d="M 112,158.68 V 156 H 96 v 2.68 c 0,4.584 0.12,9.168 0.352,13.728 l 15.984,-0.816 C 112.12,167.296 112,163 112,158.68 Z"
   id="path5436"
   inkscape:connector-curvature="0" />
	</g>
</g><g
   id="g5446"
   transform="matrix(0.04063509,0,0,0.04063509,19.557187,1.7824368)">
	<g
   id="g5444">
		<path
   d="m 113.608,187.088 -15.896,1.816 c 4.576,40.296 18.624,79.68 40.616,113.88 l 13.456,-8.656 C 131.112,261.976 117.92,224.96 113.608,187.088 Z"
   id="path5442"
   inkscape:connector-curvature="0" />
	</g>
</g><g
   id="g5452"
   transform="matrix(0.04063509,0,0,0.04063509,19.557187,1.7824368)">
	<g
   id="g5450">
		<path
   d="M 294.888,77.696 C 281.032,87.056 264.816,92 248,92 231.184,92 214.976,87.056 201.12,77.704 l -8.952,13.264 C 208.68,102.112 227.984,108 248,108 c 20.016,0 39.32,-5.888 55.84,-17.04 z"
   id="path5448"
   inkscape:connector-curvature="0" />
	</g>
</g><g
   id="g5458"
   transform="matrix(0.04063509,0,0,0.04063509,19.557187,1.7824368)">
	<g
   id="g5456">
		<path
   d="M 72,308 H 56 c 0,30.872 -25.128,56 -56,56 v 16 c 30.872,0 56,25.128 56,56 h 16 c 0,-30.872 25.128,-56 56,-56 V 364 C 97.128,364 72,338.872 72,308 Z m -8,95.16 C 57.12,389.8 46.2,378.88 32.84,372 46.2,365.12 57.12,354.2 64,340.84 70.88,354.2 81.8,365.12 95.16,372 81.8,378.88 70.88,389.8 64,403.16 Z"
   id="path5454"
   inkscape:connector-curvature="0" />
	</g>
</g><g
   id="g5464"
   transform="matrix(0.04063509,0,0,0.04063509,19.557187,1.7824368)">
	<g
   id="g5462">
		<path
   d="M 440,100 H 424.68 C 409.528,62.312 372.44,36 330.416,36 c -19.84,0 -38.496,5.368 -53.952,15.512 -17.112,11.264 -39.808,11.264 -56.928,0 C 204.088,41.368 185.432,36 165.584,36 109.568,36 64,81.568 64,137.584 v 21.096 c 0,57.36 16.4,113.168 47.416,161.416 16.688,25.96 28.944,54.304 36.432,84.24 l 8.704,34.832 c 3.056,12.272 14.024,20.832 26.664,20.832 13.72,0 25.16,-9.848 27.184,-23.416 L 228.344,316.92 c 1.48,-9.8 9.744,-16.92 19.656,-16.92 9.912,0 18.176,7.12 19.648,16.92 l 17.944,119.664 c 2.032,13.568 13.472,23.416 27.192,23.416 12.64,0 23.608,-8.56 26.664,-20.832 l 8.712,-34.832 c 7.488,-29.944 19.752,-58.288 36.44,-84.24 18.232,-28.368 31.568,-60.048 39.368,-92.928 -0.008,0.28 0.032,0.552 0.032,0.832 h 16 c 0,-30.872 25.128,-56 56,-56 v -16 c -30.872,0 -56,-25.128 -56,-56 z m -68.864,211.44 c -17.64,27.44 -30.584,57.392 -38.496,89.024 l -8.72,34.832 c -1.272,5.128 -5.856,8.704 -11.136,8.704 -5.736,0 -10.512,-4.12 -11.36,-9.792 L 283.48,314.544 C 280.824,296.84 265.896,284 248,284 c -17.896,0 -32.824,12.84 -35.48,30.544 l -17.944,119.664 c -0.84,5.672 -5.624,9.792 -11.36,9.792 -5.28,0 -9.864,-3.576 -11.152,-8.704 l -8.712,-34.832 C 155.448,368.824 142.496,338.872 124.856,311.44 95.512,265.784 80,212.96 80,158.68 V 137.584 C 80,90.392 118.392,52 165.584,52 c 16.712,0 32.328,4.456 45.16,12.888 C 221.952,72.256 234.496,76 248,76 261.504,76 274.048,72.256 285.248,64.888 298.088,56.456 313.704,52 330.416,52 c 42.208,0 78.624,31.448 84.624,72.512 l 0.336,5.208 C 405.456,145.472 387.952,156 368,156 v 16 c 18.784,0 35.4,9.328 45.56,23.56 -5.4,41.024 -20.056,81.08 -42.424,115.88 z M 432,195.16 C 425.12,181.8 414.2,170.88 400.84,164 c 13.36,-6.88 24.28,-17.8 31.16,-31.16 6.88,13.36 17.8,24.28 31.16,31.16 -13.36,6.88 -24.28,17.8 -31.16,31.16 z"
   id="path5460"
   inkscape:connector-curvature="0" />
	</g>
</g><g
   transform="matrix(0.04063509,0,0,0.04063509,19.557187,1.7824368)"
   id="g5470">
	<g
   id="g5468">
		<path
   inkscape:connector-curvature="0"
   id="path5466"
   d="M 112,158.68 V 156 H 96 v 2.68 c 0,4.584 0.12,9.168 0.352,13.728 l 15.984,-0.816 C 112.12,167.296 112,163 112,158.68 Z" />
	</g>
</g><g
   transform="matrix(0.04063509,0,0,0.04063509,19.557187,1.7824368)"
   id="g5476">
	<g
   id="g5474">
		<path
   inkscape:connector-curvature="0"
   id="path5472"
   d="m 113.608,187.088 -15.896,1.816 c 4.576,40.296 18.624,79.68 40.616,113.88 l 13.456,-8.656 C 131.112,261.976 117.92,224.96 113.608,187.088 Z" />
	</g>
</g><g
   transform="matrix(0.04063509,0,0,0.04063509,19.557187,1.7824368)"
   id="g5482">
	<g
   id="g5480">
		<path
   inkscape:connector-curvature="0"
   id="path5478"
   d="M 294.888,77.696 C 281.032,87.056 264.816,92 248,92 231.184,92 214.976,87.056 201.12,77.704 l -8.952,13.264 C 208.68,102.112 227.984,108 248,108 c 20.016,0 39.32,-5.888 55.84,-17.04 z" />
	</g>
</g><g
   transform="matrix(0.04063509,0,0,0.04063509,19.557187,1.7824368)"
   id="g5488">
	<g
   id="g5486">
		<path
   inkscape:connector-curvature="0"
   id="path5484"
   d="M 72,308 H 56 c 0,30.872 -25.128,56 -56,56 v 16 c 30.872,0 56,25.128 56,56 h 16 c 0,-30.872 25.128,-56 56,-56 V 364 C 97.128,364 72,338.872 72,308 Z m -8,95.16 C 57.12,389.8 46.2,378.88 32.84,372 46.2,365.12 57.12,354.2 64,340.84 70.88,354.2 81.8,365.12 95.16,372 81.8,378.88 70.88,389.8 64,403.16 Z" />
	</g>
</g><g
   transform="matrix(0.04063509,0,0,0.04063509,19.557187,1.7824368)"
   id="g5494">
	<g
   id="g5492">
		<path
   inkscape:connector-curvature="0"
   id="path5490"
   d="M 440,100 H 424.68 C 409.528,62.312 372.44,36 330.416,36 c -19.84,0 -38.496,5.368 -53.952,15.512 -17.112,11.264 -39.808,11.264 -56.928,0 C 204.088,41.368 185.432,36 165.584,36 109.568,36 64,81.568 64,137.584 v 21.096 c 0,57.36 16.4,113.168 47.416,161.416 16.688,25.96 28.944,54.304 36.432,84.24 l 8.704,34.832 c 3.056,12.272 14.024,20.832 26.664,20.832 13.72,0 25.16,-9.848 27.184,-23.416 L 228.344,316.92 c 1.48,-9.8 9.744,-16.92 19.656,-16.92 9.912,0 18.176,7.12 19.648,16.92 l 17.944,119.664 c 2.032,13.568 13.472,23.416 27.192,23.416 12.64,0 23.608,-8.56 26.664,-20.832 l 8.712,-34.832 c 7.488,-29.944 19.752,-58.288 36.44,-84.24 18.232,-28.368 31.568,-60.048 39.368,-92.928 -0.008,0.28 0.032,0.552 0.032,0.832 h 16 c 0,-30.872 25.128,-56 56,-56 v -16 c -30.872,0 -56,-25.128 -56,-56 z m -68.864,211.44 c -17.64,27.44 -30.584,57.392 -38.496,89.024 l -8.72,34.832 c -1.272,5.128 -5.856,8.704 -11.136,8.704 -5.736,0 -10.512,-4.12 -11.36,-9.792 L 283.48,314.544 C 280.824,296.84 265.896,284 248,284 c -17.896,0 -32.824,12.84 -35.48,30.544 l -17.944,119.664 c -0.84,5.672 -5.624,9.792 -11.36,9.792 -5.28,0 -9.864,-3.576 -11.152,-8.704 l -8.712,-34.832 C 155.448,368.824 142.496,338.872 124.856,311.44 95.512,265.784 80,212.96 80,158.68 V 137.584 C 80,90.392 118.392,52 165.584,52 c 16.712,0 32.328,4.456 45.16,12.888 C 221.952,72.256 234.496,76 248,76 261.504,76 274.048,72.256 285.248,64.888 298.088,56.456 313.704,52 330.416,52 c 42.208,0 78.624,31.448 84.624,72.512 l 0.336,5.208 C 405.456,145.472 387.952,156 368,156 v 16 c 18.784,0 35.4,9.328 45.56,23.56 -5.4,41.024 -20.056,81.08 -42.424,115.88 z M 432,195.16 C 425.12,181.8 414.2,170.88 400.84,164 c 13.36,-6.88 24.28,-17.8 31.16,-31.16 6.88,13.36 17.8,24.28 31.16,31.16 -13.36,6.88 -24.28,17.8 -31.16,31.16 z" />
	</g>
</g><g
   transform="matrix(0.04063509,0,0,0.04063509,0,-1.4628632)"
   id="g5500">
	<g
   id="g5498">
		<path
   inkscape:connector-curvature="0"
   id="path5496"
   d="M 112,158.68 V 156 H 96 v 2.68 c 0,4.584 0.12,9.168 0.352,13.728 l 15.984,-0.816 C 112.12,167.296 112,163 112,158.68 Z" />
	</g>
</g><g
   transform="matrix(0.04063509,0,0,0.04063509,0,-1.4628632)"
   id="g5506">
	<g
   id="g5504">
		<path
   inkscape:connector-curvature="0"
   id="path5502"
   d="m 113.608,187.088 -15.896,1.816 c 4.576,40.296 18.624,79.68 40.616,113.88 l 13.456,-8.656 C 131.112,261.976 117.92,224.96 113.608,187.088 Z" />
	</g>
</g><g
   transform="matrix(0.04063509,0,0,0.04063509,0,-1.4628632)"
   id="g5512">
	<g
   id="g5510">
		<path
   inkscape:connector-curvature="0"
   id="path5508"
   d="M 294.888,77.696 C 281.032,87.056 264.816,92 248,92 231.184,92 214.976,87.056 201.12,77.704 l -8.952,13.264 C 208.68,102.112 227.984,108 248,108 c 20.016,0 39.32,-5.888 55.84,-17.04 z" />
	</g>
</g><g
   transform="matrix(0.04063509,0,0,0.04063509,0,-1.4628632)"
   id="g5518">
	<g
   id="g5516">
		<path
   inkscape:connector-curvature="0"
   id="path5514"
   d="M 72,308 H 56 c 0,30.872 -25.128,56 -56,56 v 16 c 30.872,0 56,25.128 56,56 h 16 c 0,-30.872 25.128,-56 56,-56 V 364 C 97.128,364 72,338.872 72,308 Z m -8,95.16 C 57.12,389.8 46.2,378.88 32.84,372 46.2,365.12 57.12,354.2 64,340.84 70.88,354.2 81.8,365.12 95.16,372 81.8,378.88 70.88,389.8 64,403.16 Z" />
	</g>
</g><g
   transform="matrix(0.04063509,0,0,0.04063509,0,-1.4628632)"
   id="g5524">
	<g
   id="g5522">
		<path
   inkscape:connector-curvature="0"
   id="path5520"
   d="M 440,100 H 424.68 C 409.528,62.312 372.44,36 330.416,36 c -19.84,0 -38.496,5.368 -53.952,15.512 -17.112,11.264 -39.808,11.264 -56.928,0 C 204.088,41.368 185.432,36 165.584,36 109.568,36 64,81.568 64,137.584 v 21.096 c 0,57.36 16.4,113.168 47.416,161.416 16.688,25.96 28.944,54.304 36.432,84.24 l 8.704,34.832 c 3.056,12.272 14.024,20.832 26.664,20.832 13.72,0 25.16,-9.848 27.184,-23.416 L 228.344,316.92 c 1.48,-9.8 9.744,-16.92 19.656,-16.92 9.912,0 18.176,7.12 19.648,16.92 l 17.944,119.664 c 2.032,13.568 13.472,23.416 27.192,23.416 12.64,0 23.608,-8.56 26.664,-20.832 l 8.712,-34.832 c 7.488,-29.944 19.752,-58.288 36.44,-84.24 18.232,-28.368 31.568,-60.048 39.368,-92.928 -0.008,0.28 0.032,0.552 0.032,0.832 h 16 c 0,-30.872 25.128,-56 56,-56 v -16 c -30.872,0 -56,-25.128 -56,-56 z m -68.864,211.44 c -17.64,27.44 -30.584,57.392 -38.496,89.024 l -8.72,34.832 c -1.272,5.128 -5.856,8.704 -11.136,8.704 -5.736,0 -10.512,-4.12 -11.36,-9.792 L 283.48,314.544 C 280.824,296.84 265.896,284 248,284 c -17.896,0 -32.824,12.84 -35.48,30.544 l -17.944,119.664 c -0.84,5.672 -5.624,9.792 -11.36,9.792 -5.28,0 -9.864,-3.576 -11.152,-8.704 l -8.712,-34.832 C 155.448,368.824 142.496,338.872 124.856,311.44 95.512,265.784 80,212.96 80,158.68 V 137.584 C 80,90.392 118.392,52 165.584,52 c 16.712,0 32.328,4.456 45.16,12.888 C 221.952,72.256 234.496,76 248,76 261.504,76 274.048,72.256 285.248,64.888 298.088,56.456 313.704,52 330.416,52 c 42.208,0 78.624,31.448 84.624,72.512 l 0.336,5.208 C 405.456,145.472 387.952,156 368,156 v 16 c 18.784,0 35.4,9.328 45.56,23.56 -5.4,41.024 -20.056,81.08 -42.424,115.88 z M 432,195.16 C 425.12,181.8 414.2,170.88 400.84,164 c 13.36,-6.88 24.28,-17.8 31.16,-31.16 6.88,13.36 17.8,24.28 31.16,31.16 -13.36,6.88 -24.28,17.8 -31.16,31.16 z" />
	</g>
</g><g
   id="g5530"
   transform="matrix(0.04063509,0,0,0.04063509,0,-1.4628632)">
	<g
   id="g5528">
		<path
   d="M 112,158.68 V 156 H 96 v 2.68 c 0,4.584 0.12,9.168 0.352,13.728 l 15.984,-0.816 C 112.12,167.296 112,163 112,158.68 Z"
   id="path5526"
   inkscape:connector-curvature="0" />
	</g>
</g><g
   id="g5536"
   transform="matrix(0.04063509,0,0,0.04063509,0,-1.4628632)">
	<g
   id="g5534">
		<path
   d="m 113.608,187.088 -15.896,1.816 c 4.576,40.296 18.624,79.68 40.616,113.88 l 13.456,-8.656 C 131.112,261.976 117.92,224.96 113.608,187.088 Z"
   id="path5532"
   inkscape:connector-curvature="0" />
	</g>
</g><g
   id="g5542"
   transform="matrix(0.04063509,0,0,0.04063509,0,-1.4628632)">
	<g
   id="g5540">
		<path
   d="M 294.888,77.696 C 281.032,87.056 264.816,92 248,92 231.184,92 214.976,87.056 201.12,77.704 l -8.952,13.264 C 208.68,102.112 227.984,108 248,108 c 20.016,0 39.32,-5.888 55.84,-17.04 z"
   id="path5538"
   inkscape:connector-curvature="0" />
	</g>
</g><g
   id="g5548"
   transform="matrix(0.04063509,0,0,0.04063509,0,-1.4628632)">
	<g
   id="g5546">
		<path
   d="M 72,308 H 56 c 0,30.872 -25.128,56 -56,56 v 16 c 30.872,0 56,25.128 56,56 h 16 c 0,-30.872 25.128,-56 56,-56 V 364 C 97.128,364 72,338.872 72,308 Z m -8,95.16 C 57.12,389.8 46.2,378.88 32.84,372 46.2,365.12 57.12,354.2 64,340.84 70.88,354.2 81.8,365.12 95.16,372 81.8,378.88 70.88,389.8 64,403.16 Z"
   id="path5544"
   inkscape:connector-curvature="0" />
	</g>
</g><g
   id="g5554"
   transform="matrix(0.04063509,0,0,0.04063509,0,-1.4628632)">
	<g
   id="g5552">
		<path
   d="M 440,100 H 424.68 C 409.528,62.312 372.44,36 330.416,36 c -19.84,0 -38.496,5.368 -53.952,15.512 -17.112,11.264 -39.808,11.264 -56.928,0 C 204.088,41.368 185.432,36 165.584,36 109.568,36 64,81.568 64,137.584 v 21.096 c 0,57.36 16.4,113.168 47.416,161.416 16.688,25.96 28.944,54.304 36.432,84.24 l 8.704,34.832 c 3.056,12.272 14.024,20.832 26.664,20.832 13.72,0 25.16,-9.848 27.184,-23.416 L 228.344,316.92 c 1.48,-9.8 9.744,-16.92 19.656,-16.92 9.912,0 18.176,7.12 19.648,16.92 l 17.944,119.664 c 2.032,13.568 13.472,23.416 27.192,23.416 12.64,0 23.608,-8.56 26.664,-20.832 l 8.712,-34.832 c 7.488,-29.944 19.752,-58.288 36.44,-84.24 18.232,-28.368 31.568,-60.048 39.368,-92.928 -0.008,0.28 0.032,0.552 0.032,0.832 h 16 c 0,-30.872 25.128,-56 56,-56 v -16 c -30.872,0 -56,-25.128 -56,-56 z m -68.864,211.44 c -17.64,27.44 -30.584,57.392 -38.496,89.024 l -8.72,34.832 c -1.272,5.128 -5.856,8.704 -11.136,8.704 -5.736,0 -10.512,-4.12 -11.36,-9.792 L 283.48,314.544 C 280.824,296.84 265.896,284 248,284 c -17.896,0 -32.824,12.84 -35.48,30.544 l -17.944,119.664 c -0.84,5.672 -5.624,9.792 -11.36,9.792 -5.28,0 -9.864,-3.576 -11.152,-8.704 l -8.712,-34.832 C 155.448,368.824 142.496,338.872 124.856,311.44 95.512,265.784 80,212.96 80,158.68 V 137.584 C 80,90.392 118.392,52 165.584,52 c 16.712,0 32.328,4.456 45.16,12.888 C 221.952,72.256 234.496,76 248,76 261.504,76 274.048,72.256 285.248,64.888 298.088,56.456 313.704,52 330.416,52 c 42.208,0 78.624,31.448 84.624,72.512 l 0.336,5.208 C 405.456,145.472 387.952,156 368,156 v 16 c 18.784,0 35.4,9.328 45.56,23.56 -5.4,41.024 -20.056,81.08 -42.424,115.88 z M 432,195.16 C 425.12,181.8 414.2,170.88 400.84,164 c 13.36,-6.88 24.28,-17.8 31.16,-31.16 6.88,13.36 17.8,24.28 31.16,31.16 -13.36,6.88 -24.28,17.8 -31.16,31.16 z"
   id="path5550"
   inkscape:connector-curvature="0" />
	</g>
</g><g
   id="g5560"
   transform="matrix(0.04063509,0,0,0.04063509,0,-1.4628632)">
	<g
   id="g5558">
		<path
   d="M 112,158.68 V 156 H 96 v 2.68 c 0,4.584 0.12,9.168 0.352,13.728 l 15.984,-0.816 C 112.12,167.296 112,163 112,158.68 Z"
   id="path5556"
   inkscape:connector-curvature="0" />
	</g>
</g><g
   id="g5566"
   transform="matrix(0.04063509,0,0,0.04063509,0,-1.4628632)">
	<g
   id="g5564">
		<path
   d="m 113.608,187.088 -15.896,1.816 c 4.576,40.296 18.624,79.68 40.616,113.88 l 13.456,-8.656 C 131.112,261.976 117.92,224.96 113.608,187.088 Z"
   id="path5562"
   inkscape:connector-curvature="0" />
	</g>
</g><g
   id="g5572"
   transform="matrix(0.04063509,0,0,0.04063509,0,-1.4628632)">
	<g
   id="g5570">
		<path
   d="M 294.888,77.696 C 281.032,87.056 264.816,92 248,92 231.184,92 214.976,87.056 201.12,77.704 l -8.952,13.264 C 208.68,102.112 227.984,108 248,108 c 20.016,0 39.32,-5.888 55.84,-17.04 z"
   id="path5568"
   inkscape:connector-curvature="0" />
	</g>
</g><g
   id="g5578"
   transform="matrix(0.04063509,0,0,0.04063509,0,-1.4628632)">
	<g
   id="g5576">
		<path
   d="M 72,308 H 56 c 0,30.872 -25.128,56 -56,56 v 16 c 30.872,0 56,25.128 56,56 h 16 c 0,-30.872 25.128,-56 56,-56 V 364 C 97.128,364 72,338.872 72,308 Z m -8,95.16 C 57.12,389.8 46.2,378.88 32.84,372 46.2,365.12 57.12,354.2 64,340.84 70.88,354.2 81.8,365.12 95.16,372 81.8,378.88 70.88,389.8 64,403.16 Z"
   id="path5574"
   inkscape:connector-curvature="0" />
	</g>
</g><g
   id="g5584"
   transform="matrix(0.04063509,0,0,0.04063509,0,-1.4628632)">
	<g
   id="g5582">
		<path
   d="M 440,100 H 424.68 C 409.528,62.312 372.44,36 330.416,36 c -19.84,0 -38.496,5.368 -53.952,15.512 -17.112,11.264 -39.808,11.264 -56.928,0 C 204.088,41.368 185.432,36 165.584,36 109.568,36 64,81.568 64,137.584 v 21.096 c 0,57.36 16.4,113.168 47.416,161.416 16.688,25.96 28.944,54.304 36.432,84.24 l 8.704,34.832 c 3.056,12.272 14.024,20.832 26.664,20.832 13.72,0 25.16,-9.848 27.184,-23.416 L 228.344,316.92 c 1.48,-9.8 9.744,-16.92 19.656,-16.92 9.912,0 18.176,7.12 19.648,16.92 l 17.944,119.664 c 2.032,13.568 13.472,23.416 27.192,23.416 12.64,0 23.608,-8.56 26.664,-20.832 l 8.712,-34.832 c 7.488,-29.944 19.752,-58.288 36.44,-84.24 18.232,-28.368 31.568,-60.048 39.368,-92.928 -0.008,0.28 0.032,0.552 0.032,0.832 h 16 c 0,-30.872 25.128,-56 56,-56 v -16 c -30.872,0 -56,-25.128 -56,-56 z m -68.864,211.44 c -17.64,27.44 -30.584,57.392 -38.496,89.024 l -8.72,34.832 c -1.272,5.128 -5.856,8.704 -11.136,8.704 -5.736,0 -10.512,-4.12 -11.36,-9.792 L 283.48,314.544 C 280.824,296.84 265.896,284 248,284 c -17.896,0 -32.824,12.84 -35.48,30.544 l -17.944,119.664 c -0.84,5.672 -5.624,9.792 -11.36,9.792 -5.28,0 -9.864,-3.576 -11.152,-8.704 l -8.712,-34.832 C 155.448,368.824 142.496,338.872 124.856,311.44 95.512,265.784 80,212.96 80,158.68 V 137.584 C 80,90.392 118.392,52 165.584,52 c 16.712,0 32.328,4.456 45.16,12.888 C 221.952,72.256 234.496,76 248,76 261.504,76 274.048,72.256 285.248,64.888 298.088,56.456 313.704,52 330.416,52 c 42.208,0 78.624,31.448 84.624,72.512 l 0.336,5.208 C 405.456,145.472 387.952,156 368,156 v 16 c 18.784,0 35.4,9.328 45.56,23.56 -5.4,41.024 -20.056,81.08 -42.424,115.88 z M 432,195.16 C 425.12,181.8 414.2,170.88 400.84,164 c 13.36,-6.88 24.28,-17.8 31.16,-31.16 6.88,13.36 17.8,24.28 31.16,31.16 -13.36,6.88 -24.28,17.8 -31.16,31.16 z"
   id="path5580"
   inkscape:connector-curvature="0" />
	</g>
</g><g
   transform="matrix(0.04063509,0,0,0.04063509,0,-1.4628632)"
   id="g5590">
	<g
   id="g5588">
		<path
   inkscape:connector-curvature="0"
   id="path5586"
   d="M 112,158.68 V 156 H 96 v 2.68 c 0,4.584 0.12,9.168 0.352,13.728 l 15.984,-0.816 C 112.12,167.296 112,163 112,158.68 Z" />
	</g>
</g><g
   transform="matrix(0.04063509,0,0,0.04063509,0,-1.4628632)"
   id="g5596">
	<g
   id="g5594">
		<path
   inkscape:connector-curvature="0"
   id="path5592"
   d="m 113.608,187.088 -15.896,1.816 c 4.576,40.296 18.624,79.68 40.616,113.88 l 13.456,-8.656 C 131.112,261.976 117.92,224.96 113.608,187.088 Z" />
	</g>
</g><g
   transform="matrix(0.04063509,0,0,0.04063509,0,-1.4628632)"
   id="g5602">
	<g
   id="g5600">
		<path
   inkscape:connector-curvature="0"
   id="path5598"
   d="M 294.888,77.696 C 281.032,87.056 264.816,92 248,92 231.184,92 214.976,87.056 201.12,77.704 l -8.952,13.264 C 208.68,102.112 227.984,108 248,108 c 20.016,0 39.32,-5.888 55.84,-17.04 z" />
	</g>
</g><g
   transform="matrix(0.04063509,0,0,0.04063509,0,-1.4628632)"
   id="g5608">
	<g
   id="g5606">
		<path
   inkscape:connector-curvature="0"
   id="path5604"
   d="M 72,308 H 56 c 0,30.872 -25.128,56 -56,56 v 16 c 30.872,0 56,25.128 56,56 h 16 c 0,-30.872 25.128,-56 56,-56 V 364 C 97.128,364 72,338.872 72,308 Z m -8,95.16 C 57.12,389.8 46.2,378.88 32.84,372 46.2,365.12 57.12,354.2 64,340.84 70.88,354.2 81.8,365.12 95.16,372 81.8,378.88 70.88,389.8 64,403.16 Z" />
	</g>
</g><g
   transform="matrix(0.04063509,0,0,0.04063509,0,-1.4628632)"
   id="g5614">
	<g
   id="g5612">
		<path
   inkscape:connector-curvature="0"
   id="path5610"
   d="M 440,100 H 424.68 C 409.528,62.312 372.44,36 330.416,36 c -19.84,0 -38.496,5.368 -53.952,15.512 -17.112,11.264 -39.808,11.264 -56.928,0 C 204.088,41.368 185.432,36 165.584,36 109.568,36 64,81.568 64,137.584 v 21.096 c 0,57.36 16.4,113.168 47.416,161.416 16.688,25.96 28.944,54.304 36.432,84.24 l 8.704,34.832 c 3.056,12.272 14.024,20.832 26.664,20.832 13.72,0 25.16,-9.848 27.184,-23.416 L 228.344,316.92 c 1.48,-9.8 9.744,-16.92 19.656,-16.92 9.912,0 18.176,7.12 19.648,16.92 l 17.944,119.664 c 2.032,13.568 13.472,23.416 27.192,23.416 12.64,0 23.608,-8.56 26.664,-20.832 l 8.712,-34.832 c 7.488,-29.944 19.752,-58.288 36.44,-84.24 18.232,-28.368 31.568,-60.048 39.368,-92.928 -0.008,0.28 0.032,0.552 0.032,0.832 h 16 c 0,-30.872 25.128,-56 56,-56 v -16 c -30.872,0 -56,-25.128 -56,-56 z m -68.864,211.44 c -17.64,27.44 -30.584,57.392 -38.496,89.024 l -8.72,34.832 c -1.272,5.128 -5.856,8.704 -11.136,8.704 -5.736,0 -10.512,-4.12 -11.36,-9.792 L 283.48,314.544 C 280.824,296.84 265.896,284 248,284 c -17.896,0 -32.824,12.84 -35.48,30.544 l -17.944,119.664 c -0.84,5.672 -5.624,9.792 -11.36,9.792 -5.28,0 -9.864,-3.576 -11.152,-8.704 l -8.712,-34.832 C 155.448,368.824 142.496,338.872 124.856,311.44 95.512,265.784 80,212.96 80,158.68 V 137.584 C 80,90.392 118.392,52 165.584,52 c 16.712,0 32.328,4.456 45.16,12.888 C 221.952,72.256 234.496,76 248,76 261.504,76 274.048,72.256 285.248,64.888 298.088,56.456 313.704,52 330.416,52 c 42.208,0 78.624,31.448 84.624,72.512 l 0.336,5.208 C 405.456,145.472 387.952,156 368,156 v 16 c 18.784,0 35.4,9.328 45.56,23.56 -5.4,41.024 -20.056,81.08 -42.424,115.88 z M 432,195.16 C 425.12,181.8 414.2,170.88 400.84,164 c 13.36,-6.88 24.28,-17.8 31.16,-31.16 6.88,13.36 17.8,24.28 31.16,31.16 -13.36,6.88 -24.28,17.8 -31.16,31.16 z" />
	</g>
</g><g
   id="g5620"
   transform="matrix(0.04063509,0,0,0.04063509,19.557187,1.7824368)">
	<g
   id="g5618">
		<path
   d="M 112,158.68 V 156 H 96 v 2.68 c 0,4.584 0.12,9.168 0.352,13.728 l 15.984,-0.816 C 112.12,167.296 112,163 112,158.68 Z"
   id="path5616"
   inkscape:connector-curvature="0" />
	</g>
</g><g
   id="g5626"
   transform="matrix(0.04063509,0,0,0.04063509,19.557187,1.7824368)">
	<g
   id="g5624">
		<path
   d="m 113.608,187.088 -15.896,1.816 c 4.576,40.296 18.624,79.68 40.616,113.88 l 13.456,-8.656 C 131.112,261.976 117.92,224.96 113.608,187.088 Z"
   id="path5622"
   inkscape:connector-curvature="0" />
	</g>
</g><g
   id="g5632"
   transform="matrix(0.04063509,0,0,0.04063509,19.557187,1.7824368)">
	<g
   id="g5630">
		<path
   d="M 294.888,77.696 C 281.032,87.056 264.816,92 248,92 231.184,92 214.976,87.056 201.12,77.704 l -8.952,13.264 C 208.68,102.112 227.984,108 248,108 c 20.016,0 39.32,-5.888 55.84,-17.04 z"
   id="path5628"
   inkscape:connector-curvature="0" />
	</g>
</g><g
   id="g5638"
   transform="matrix(0.04063509,0,0,0.04063509,19.557187,1.7824368)">
	<g
   id="g5636">
		<path
   d="M 72,308 H 56 c 0,30.872 -25.128,56 -56,56 v 16 c 30.872,0 56,25.128 56,56 h 16 c 0,-30.872 25.128,-56 56,-56 V 364 C 97.128,364 72,338.872 72,308 Z m -8,95.16 C 57.12,389.8 46.2,378.88 32.84,372 46.2,365.12 57.12,354.2 64,340.84 70.88,354.2 81.8,365.12 95.16,372 81.8,378.88 70.88,389.8 64,403.16 Z"
   id="path5634"
   inkscape:connector-curvature="0" />
	</g>
</g><g
   id="g5644"
   transform="matrix(0.04063509,0,0,0.04063509,19.557187,1.7824368)">
	<g
   id="g5642">
		<path
   d="M 440,100 H 424.68 C 409.528,62.312 372.44,36 330.416,36 c -19.84,0 -38.496,5.368 -53.952,15.512 -17.112,11.264 -39.808,11.264 -56.928,0 C 204.088,41.368 185.432,36 165.584,36 109.568,36 64,81.568 64,137.584 v 21.096 c 0,57.36 16.4,113.168 47.416,161.416 16.688,25.96 28.944,54.304 36.432,84.24 l 8.704,34.832 c 3.056,12.272 14.024,20.832 26.664,20.832 13.72,0 25.16,-9.848 27.184,-23.416 L 228.344,316.92 c 1.48,-9.8 9.744,-16.92 19.656,-16.92 9.912,0 18.176,7.12 19.648,16.92 l 17.944,119.664 c 2.032,13.568 13.472,23.416 27.192,23.416 12.64,0 23.608,-8.56 26.664,-20.832 l 8.712,-34.832 c 7.488,-29.944 19.752,-58.288 36.44,-84.24 18.232,-28.368 31.568,-60.048 39.368,-92.928 -0.008,0.28 0.032,0.552 0.032,0.832 h 16 c 0,-30.872 25.128,-56 56,-56 v -16 c -30.872,0 -56,-25.128 -56,-56 z m -68.864,211.44 c -17.64,27.44 -30.584,57.392 -38.496,89.024 l -8.72,34.832 c -1.272,5.128 -5.856,8.704 -11.136,8.704 -5.736,0 -10.512,-4.12 -11.36,-9.792 L 283.48,314.544 C 280.824,296.84 265.896,284 248,284 c -17.896,0 -32.824,12.84 -35.48,30.544 l -17.944,119.664 c -0.84,5.672 -5.624,9.792 -11.36,9.792 -5.28,0 -9.864,-3.576 -11.152,-8.704 l -8.712,-34.832 C 155.448,368.824 142.496,338.872 124.856,311.44 95.512,265.784 80,212.96 80,158.68 V 137.584 C 80,90.392 118.392,52 165.584,52 c 16.712,0 32.328,4.456 45.16,12.888 C 221.952,72.256 234.496,76 248,76 261.504,76 274.048,72.256 285.248,64.888 298.088,56.456 313.704,52 330.416,52 c 42.208,0 78.624,31.448 84.624,72.512 l 0.336,5.208 C 405.456,145.472 387.952,156 368,156 v 16 c 18.784,0 35.4,9.328 45.56,23.56 -5.4,41.024 -20.056,81.08 -42.424,115.88 z M 432,195.16 C 425.12,181.8 414.2,170.88 400.84,164 c 13.36,-6.88 24.28,-17.8 31.16,-31.16 6.88,13.36 17.8,24.28 31.16,31.16 -13.36,6.88 -24.28,17.8 -31.16,31.16 z"
   id="path5640"
   inkscape:connector-curvature="0" />
	</g>
</g><g
   transform="matrix(0.04063509,0,0,0.04063509,19.557187,1.7824368)"
   id="g5650">
	<g
   id="g5648">
		<path
   inkscape:connector-curvature="0"
   id="path5646"
   d="M 112,158.68 V 156 H 96 v 2.68 c 0,4.584 0.12,9.168 0.352,13.728 l 15.984,-0.816 C 112.12,167.296 112,163 112,158.68 Z" />
	</g>
</g><g
   transform="matrix(0.04063509,0,0,0.04063509,19.557187,1.7824368)"
   id="g5656">
	<g
   id="g5654">
		<path
   inkscape:connector-curvature="0"
   id="path5652"
   d="m 113.608,187.088 -15.896,1.816 c 4.576,40.296 18.624,79.68 40.616,113.88 l 13.456,-8.656 C 131.112,261.976 117.92,224.96 113.608,187.088 Z" />
	</g>
</g><g
   transform="matrix(0.04063509,0,0,0.04063509,19.557187,1.7824368)"
   id="g5662">
	<g
   id="g5660">
		<path
   inkscape:connector-curvature="0"
   id="path5658"
   d="M 294.888,77.696 C 281.032,87.056 264.816,92 248,92 231.184,92 214.976,87.056 201.12,77.704 l -8.952,13.264 C 208.68,102.112 227.984,108 248,108 c 20.016,0 39.32,-5.888 55.84,-17.04 z" />
	</g>
</g><g
   transform="matrix(0.04063509,0,0,0.04063509,19.557187,1.7824368)"
   id="g5668">
	<g
   id="g5666">
		<path
   inkscape:connector-curvature="0"
   id="path5664"
   d="M 72,308 H 56 c 0,30.872 -25.128,56 -56,56 v 16 c 30.872,0 56,25.128 56,56 h 16 c 0,-30.872 25.128,-56 56,-56 V 364 C 97.128,364 72,338.872 72,308 Z m -8,95.16 C 57.12,389.8 46.2,378.88 32.84,372 46.2,365.12 57.12,354.2 64,340.84 70.88,354.2 81.8,365.12 95.16,372 81.8,378.88 70.88,389.8 64,403.16 Z" />
	</g>
</g><g
   transform="matrix(0.04063509,0,0,0.04063509,19.557187,1.7824368)"
   id="g5674">
	<g
   id="g5672">
		<path
   inkscape:connector-curvature="0"
   id="path5670"
   d="M 440,100 H 424.68 C 409.528,62.312 372.44,36 330.416,36 c -19.84,0 -38.496,5.368 -53.952,15.512 -17.112,11.264 -39.808,11.264 -56.928,0 C 204.088,41.368 185.432,36 165.584,36 109.568,36 64,81.568 64,137.584 v 21.096 c 0,57.36 16.4,113.168 47.416,161.416 16.688,25.96 28.944,54.304 36.432,84.24 l 8.704,34.832 c 3.056,12.272 14.024,20.832 26.664,20.832 13.72,0 25.16,-9.848 27.184,-23.416 L 228.344,316.92 c 1.48,-9.8 9.744,-16.92 19.656,-16.92 9.912,0 18.176,7.12 19.648,16.92 l 17.944,119.664 c 2.032,13.568 13.472,23.416 27.192,23.416 12.64,0 23.608,-8.56 26.664,-20.832 l 8.712,-34.832 c 7.488,-29.944 19.752,-58.288 36.44,-84.24 18.232,-28.368 31.568,-60.048 39.368,-92.928 -0.008,0.28 0.032,0.552 0.032,0.832 h 16 c 0,-30.872 25.128,-56 56,-56 v -16 c -30.872,0 -56,-25.128 -56,-56 z m -68.864,211.44 c -17.64,27.44 -30.584,57.392 -38.496,89.024 l -8.72,34.832 c -1.272,5.128 -5.856,8.704 -11.136,8.704 -5.736,0 -10.512,-4.12 -11.36,-9.792 L 283.48,314.544 C 280.824,296.84 265.896,284 248,284 c -17.896,0 -32.824,12.84 -35.48,30.544 l -17.944,119.664 c -0.84,5.672 -5.624,9.792 -11.36,9.792 -5.28,0 -9.864,-3.576 -11.152,-8.704 l -8.712,-34.832 C 155.448,368.824 142.496,338.872 124.856,311.44 95.512,265.784 80,212.96 80,158.68 V 137.584 C 80,90.392 118.392,52 165.584,52 c 16.712,0 32.328,4.456 45.16,12.888 C 221.952,72.256 234.496,76 248,76 261.504,76 274.048,72.256 285.248,64.888 298.088,56.456 313.704,52 330.416,52 c 42.208,0 78.624,31.448 84.624,72.512 l 0.336,5.208 C 405.456,145.472 387.952,156 368,156 v 16 c 18.784,0 35.4,9.328 45.56,23.56 -5.4,41.024 -20.056,81.08 -42.424,115.88 z M 432,195.16 C 425.12,181.8 414.2,170.88 400.84,164 c 13.36,-6.88 24.28,-17.8 31.16,-31.16 6.88,13.36 17.8,24.28 31.16,31.16 -13.36,6.88 -24.28,17.8 -31.16,31.16 z" />
	</g>
</g><g
   transform="matrix(0.04063509,0,0,0.04063509,19.557187,1.7824368)"
   id="g5680">
	<g
   id="g5678">
		<path
   inkscape:connector-curvature="0"
   id="path5676"
   d="M 112,158.68 V 156 H 96 v 2.68 c 0,4.584 0.12,9.168 0.352,13.728 l 15.984,-0.816 C 112.12,167.296 112,163 112,158.68 Z" />
	</g>
</g><g
   transform="matrix(0.04063509,0,0,0.04063509,19.557187,1.7824368)"
   id="g5686">
	<g
   id="g5684">
		<path
   inkscape:connector-curvature="0"
   id="path5682"
   d="m 113.608,187.088 -15.896,1.816 c 4.576,40.296 18.624,79.68 40.616,113.88 l 13.456,-8.656 C 131.112,261.976 117.92,224.96 113.608,187.088 Z" />
	</g>
</g><g
   transform="matrix(0.04063509,0,0,0.04063509,19.557187,1.7824368)"
   id="g5692">
	<g
   id="g5690">
		<path
   inkscape:connector-curvature="0"
   id="path5688"
   d="M 294.888,77.696 C 281.032,87.056 264.816,92 248,92 231.184,92 214.976,87.056 201.12,77.704 l -8.952,13.264 C 208.68,102.112 227.984,108 248,108 c 20.016,0 39.32,-5.888 55.84,-17.04 z" />
	</g>
</g><g
   transform="matrix(0.04063509,0,0,0.04063509,19.557187,1.7824368)"
   id="g5698">
	<g
   id="g5696">
		<path
   inkscape:connector-curvature="0"
   id="path5694"
   d="M 72,308 H 56 c 0,30.872 -25.128,56 -56,56 v 16 c 30.872,0 56,25.128 56,56 h 16 c 0,-30.872 25.128,-56 56,-56 V 364 C 97.128,364 72,338.872 72,308 Z m -8,95.16 C 57.12,389.8 46.2,378.88 32.84,372 46.2,365.12 57.12,354.2 64,340.84 70.88,354.2 81.8,365.12 95.16,372 81.8,378.88 70.88,389.8 64,403.16 Z" />
	</g>
</g><g
   transform="matrix(0.04063509,0,0,0.04063509,19.557187,1.7824368)"
   id="g5704">
	<g
   id="g5702">
		<path
   inkscape:connector-curvature="0"
   id="path5700"
   d="M 440,100 H 424.68 C 409.528,62.312 372.44,36 330.416,36 c -19.84,0 -38.496,5.368 -53.952,15.512 -17.112,11.264 -39.808,11.264 -56.928,0 C 204.088,41.368 185.432,36 165.584,36 109.568,36 64,81.568 64,137.584 v 21.096 c 0,57.36 16.4,113.168 47.416,161.416 16.688,25.96 28.944,54.304 36.432,84.24 l 8.704,34.832 c 3.056,12.272 14.024,20.832 26.664,20.832 13.72,0 25.16,-9.848 27.184,-23.416 L 228.344,316.92 c 1.48,-9.8 9.744,-16.92 19.656,-16.92 9.912,0 18.176,7.12 19.648,16.92 l 17.944,119.664 c 2.032,13.568 13.472,23.416 27.192,23.416 12.64,0 23.608,-8.56 26.664,-20.832 l 8.712,-34.832 c 7.488,-29.944 19.752,-58.288 36.44,-84.24 18.232,-28.368 31.568,-60.048 39.368,-92.928 -0.008,0.28 0.032,0.552 0.032,0.832 h 16 c 0,-30.872 25.128,-56 56,-56 v -16 c -30.872,0 -56,-25.128 -56,-56 z m -68.864,211.44 c -17.64,27.44 -30.584,57.392 -38.496,89.024 l -8.72,34.832 c -1.272,5.128 -5.856,8.704 -11.136,8.704 -5.736,0 -10.512,-4.12 -11.36,-9.792 L 283.48,314.544 C 280.824,296.84 265.896,284 248,284 c -17.896,0 -32.824,12.84 -35.48,30.544 l -17.944,119.664 c -0.84,5.672 -5.624,9.792 -11.36,9.792 -5.28,0 -9.864,-3.576 -11.152,-8.704 l -8.712,-34.832 C 155.448,368.824 142.496,338.872 124.856,311.44 95.512,265.784 80,212.96 80,158.68 V 137.584 C 80,90.392 118.392,52 165.584,52 c 16.712,0 32.328,4.456 45.16,12.888 C 221.952,72.256 234.496,76 248,76 261.504,76 274.048,72.256 285.248,64.888 298.088,56.456 313.704,52 330.416,52 c 42.208,0 78.624,31.448 84.624,72.512 l 0.336,5.208 C 405.456,145.472 387.952,156 368,156 v 16 c 18.784,0 35.4,9.328 45.56,23.56 -5.4,41.024 -20.056,81.08 -42.424,115.88 z M 432,195.16 C 425.12,181.8 414.2,170.88 400.84,164 c 13.36,-6.88 24.28,-17.8 31.16,-31.16 6.88,13.36 17.8,24.28 31.16,31.16 -13.36,6.88 -24.28,17.8 -31.16,31.16 z" />
	</g>
</g><g
   id="g5710"
   transform="matrix(0.04063509,0,0,0.04063509,19.557187,1.7824368)">
	<g
   id="g5708">
		<path
   d="M 112,158.68 V 156 H 96 v 2.68 c 0,4.584 0.12,9.168 0.352,13.728 l 15.984,-0.816 C 112.12,167.296 112,163 112,158.68 Z"
   id="path5706"
   inkscape:connector-curvature="0" />
	</g>
</g><g
   id="g5716"
   transform="matrix(0.04063509,0,0,0.04063509,19.557187,1.7824368)">
	<g
   id="g5714">
		<path
   d="m 113.608,187.088 -15.896,1.816 c 4.576,40.296 18.624,79.68 40.616,113.88 l 13.456,-8.656 C 131.112,261.976 117.92,224.96 113.608,187.088 Z"
   id="path5712"
   inkscape:connector-curvature="0" />
	</g>
</g><g
   id="g5722"
   transform="matrix(0.04063509,0,0,0.04063509,19.557187,1.7824368)">
	<g
   id="g5720">
		<path
   d="M 294.888,77.696 C 281.032,87.056 264.816,92 248,92 231.184,92 214.976,87.056 201.12,77.704 l -8.952,13.264 C 208.68,102.112 227.984,108 248,108 c 20.016,0 39.32,-5.888 55.84,-17.04 z"
   id="path5718"
   inkscape:connector-curvature="0" />
	</g>
</g><g
   id="g5728"
   transform="matrix(0.04063509,0,0,0.04063509,19.557187,1.7824368)">
	<g
   id="g5726">
		<path
   d="M 72,308 H 56 c 0,30.872 -25.128,56 -56,56 v 16 c 30.872,0 56,25.128 56,56 h 16 c 0,-30.872 25.128,-56 56,-56 V 364 C 97.128,364 72,338.872 72,308 Z m -8,95.16 C 57.12,389.8 46.2,378.88 32.84,372 46.2,365.12 57.12,354.2 64,340.84 70.88,354.2 81.8,365.12 95.16,372 81.8,378.88 70.88,389.8 64,403.16 Z"
   id="path5724"
   inkscape:connector-curvature="0" />
	</g>
</g><g
   id="g5734"
   transform="matrix(0.04063509,0,0,0.04063509,19.557187,1.7824368)">
	<g
   id="g5732">
		<path
   d="M 440,100 H 424.68 C 409.528,62.312 372.44,36 330.416,36 c -19.84,0 -38.496,5.368 -53.952,15.512 -17.112,11.264 -39.808,11.264 -56.928,0 C 204.088,41.368 185.432,36 165.584,36 109.568,36 64,81.568 64,137.584 v 21.096 c 0,57.36 16.4,113.168 47.416,161.416 16.688,25.96 28.944,54.304 36.432,84.24 l 8.704,34.832 c 3.056,12.272 14.024,20.832 26.664,20.832 13.72,0 25.16,-9.848 27.184,-23.416 L 228.344,316.92 c 1.48,-9.8 9.744,-16.92 19.656,-16.92 9.912,0 18.176,7.12 19.648,16.92 l 17.944,119.664 c 2.032,13.568 13.472,23.416 27.192,23.416 12.64,0 23.608,-8.56 26.664,-20.832 l 8.712,-34.832 c 7.488,-29.944 19.752,-58.288 36.44,-84.24 18.232,-28.368 31.568,-60.048 39.368,-92.928 -0.008,0.28 0.032,0.552 0.032,0.832 h 16 c 0,-30.872 25.128,-56 56,-56 v -16 c -30.872,0 -56,-25.128 -56,-56 z m -68.864,211.44 c -17.64,27.44 -30.584,57.392 -38.496,89.024 l -8.72,34.832 c -1.272,5.128 -5.856,8.704 -11.136,8.704 -5.736,0 -10.512,-4.12 -11.36,-9.792 L 283.48,314.544 C 280.824,296.84 265.896,284 248,284 c -17.896,0 -32.824,12.84 -35.48,30.544 l -17.944,119.664 c -0.84,5.672 -5.624,9.792 -11.36,9.792 -5.28,0 -9.864,-3.576 -11.152,-8.704 l -8.712,-34.832 C 155.448,368.824 142.496,338.872 124.856,311.44 95.512,265.784 80,212.96 80,158.68 V 137.584 C 80,90.392 118.392,52 165.584,52 c 16.712,0 32.328,4.456 45.16,12.888 C 221.952,72.256 234.496,76 248,76 261.504,76 274.048,72.256 285.248,64.888 298.088,56.456 313.704,52 330.416,52 c 42.208,0 78.624,31.448 84.624,72.512 l 0.336,5.208 C 405.456,145.472 387.952,156 368,156 v 16 c 18.784,0 35.4,9.328 45.56,23.56 -5.4,41.024 -20.056,81.08 -42.424,115.88 z M 432,195.16 C 425.12,181.8 414.2,170.88 400.84,164 c 13.36,-6.88 24.28,-17.8 31.16,-31.16 6.88,13.36 17.8,24.28 31.16,31.16 -13.36,6.88 -24.28,17.8 -31.16,31.16 z"
   id="path5730"
   inkscape:connector-curvature="0" />
	</g>
</g></svg>